<?xml version="1.0" standalone="yes"?>
<svg xmlns="http://www.w3.org/2000/svg" width="908" height="129">
<path style="fill:#ffffff; stroke:none;" d="M0 0L0 110C3.71374 108.624 5.88 108.42 8 112L3 111L3 112C8.39042 116.458 7.67774 121.584 0 120L0 129L908 129L908 103L899 103C900.549 96.5141 900.193 92.2542 908 92L908 0L141 0C149.211 15.6915 142.227 29.7745 131 42C133.779 36.7172 137.31 31.1135 137.796 25.0046C138.052 21.7919 136.654 18.4918 133.02 20.662C126.366 24.6362 122.536 34.6573 118.575 41C112.676 50.4458 104.599 58.8214 95 64.5471C72.6415 77.8843 38.1309 79.0886 20.669 56.9992C15.4297 50.3715 10.9139 41.7176 12.6728 33C20.0124 -3.37495 63.8429 6.15231 78 31C68.3077 21.5141 54.0858 12.9636 40 18.1335C15.3623 27.1762 23.7268 59.538 44 67.5355C50.8476 70.2367 58.6964 70.9799 66 71L66 70C53.6061 67.499 50.2383 49.1093 65 47.2716C78.9898 45.53 80.5324 63.2739 70 69L70 70C92.5379 68.2064 110.559 52.3525 119.124 32C123.658 21.2262 123.862 8.48409 134 1C123.496 -3.40758 105.42 0 94 0L0 0z"/>
<path style="fill:#eff2c4; stroke:none;" d="M134 0L135 1L134 0z"/>
<path style="fill:#d5dc63; stroke:none;" d="M77 29C64.13 6.73488 19.2788 -2.85852 13.3287 31C4.96834 78.5742 73.437 80.2083 100 61.5602C115.065 50.9839 119.044 33.0141 132.133 21.2724C135.993 17.8105 138.078 20.7071 137.888 25.0039C137.645 30.4968 134.483 35.2801 132 40C140.207 33.9413 145.163 22.174 144.946 12C144.822 6.18876 141.302 -2.37701 134.004 1.18364C122.788 6.65538 121.949 26.8705 116.741 37C103.548 62.6601 66.2368 82.5682 39 65.0309C19.3803 52.3981 19.502 22.0093 45 16.5185C57.6008 13.805 67.0528 23.2787 77 29z"/>
<path style="fill:#eff2c4; stroke:none;" d="M140 0L141 1L140 0M132 1L133 2L132 1M141 1L142 2L141 1M131 2L132 3L131 2M142 2L143 3L142 2M130 3L131 4L130 3M129 4L130 5L129 4M144.333 6.66666L144.667 7.33334L144.333 6.66666M127 7L128 8L127 7M37 8L37 9L40 9L37 8M48.6667 8.33334L49.3333 8.66666L48.6667 8.33334M34 9L35 10L34 9M52.6667 9.33334L53.3333 9.66666L52.6667 9.33334M126 9L127 10L126 9M31 10L32 11L31 10M55 10L56 11L55 10M29 11L30 12L29 11M58 11L59 12L58 11M125 12L126 13L125 12M26 13L27 14L26 13M61 13L62 14L61 13M63 14L64 15L63 14M124.333 14.6667L124.667 15.3333L124.333 14.6667M23 15L24 16L23 15M64 15L65 16L64 15M22 16L23 17L22 16M44 16L44 17L54 17L44 16M41 17L42 18L41 17M56.6667 17.3333L57.3333 17.6667L56.6667 17.3333M123.333 17.6667L123.667 18.3333L123.333 17.6667M144 17L144 20L145 20L144 17M38 18L39 19L38 18M59.6667 18.3333L60.3333 18.6667L59.6667 18.3333M68 18L69 19L68 18M135 18L136 19L135 18M62 19L63 20L62 19M69 19L70 20L69 19M133 19L134 20L133 19M137 19L138 20L137 19M18 20L19 21L18 20M35 20L36 21L35 20M64 20L65 21L64 20M70 20L71 21L70 20M132 20L133 21L132 20M17 21L18 22L17 21M71 21L72 22L71 21M122 21L123 22L122 21M131 21L132 22L131 21M67 22L68 23L67 22M72 22L73 23L72 22M130 22L131 23L130 22M143.333 22.6667L143.667 23.3333L143.333 22.6667M31 23L32 24L31 23M69 23L70 24L69 23M15 24L16 25L15 24M70 24L71 25L70 24M121.333 24.6667L121.667 25.3333L121.333 24.6667M128 25L129 26L128 25M142 25L143 26L142 25M14 26L15 27L14 26M75 26L76 27L75 26M127 26L128 27L127 26M28 27L29 28L28 27M74 27L75 28L74 27M137.333 27.6667L137.667 28.3333L137.333 27.6667M141 27L142 28L141 27M27 28L28 29L27 28M75 28L76 29L75 28M120 28L121 29L120 28M13 29L14 30L13 29M76 29L78 31L78 29L76 29M125 29L126 30L125 29M140 29L141 30L140 29M26 30L27 31L26 30M136.333 30.6667L136.667 31.3333L136.333 30.6667M119 31L120 32L119 31M124 31L125 32L124 31M139 31L140 32L139 31M25.3333 32.6667L25.6667 33.3333L25.3333 32.6667M123 32L124 33L123 32M12 33L12 40L13 40L12 33M118 33L119 34L118 33M135 33L136 34L135 33M122 34L123 35L122 34M137 34L138 35L137 34M117 35L118 36L117 35M134 35L135 36L134 35M24 36L24 39L25 39L24 36M121 36L122 37L121 36M116 37L117 38L116 37M120 37L121 38L120 37M133 37L134 38L133 37M134 38L135 39L134 38M115 39L116 40L115 39M119 39L120 40L119 39M133 39L134 40L133 39M131 40L131 42L133 40L131 40M24 41L24 45L25 45L24 41M114 41L115 42L114 41M118 41L119 42L118 41M117 42L118 43L117 42M130 42L131 43L130 42M13.3333 43.6667L13.6667 44.3333L13.3333 43.6667M112 44L113 45L112 44M116 44L117 45L116 44M111 45L112 46L111 45M115 45L116 46L115 45M14.3333 46.6667L14.6667 47.3333L14.3333 46.6667M25.3333 47.6667L25.6667 48.3333L25.3333 47.6667M62 47L63 48L62 47z"/>
<path style="fill:#c6c7c7; stroke:none;" d="M63.6667 47.3333L64.3333 47.6667L63.6667 47.3333z"/>
<path style="fill:#999a9a; stroke:none;" d="M65 47.6528C50.3847 49.078 53.5152 70.5669 67.9992 68.8627C81.5926 67.2632 78.6157 46.3251 65 47.6528z"/>
<path style="fill:#c6c7c7; stroke:none;" d="M67.6667 47.3333L68.3333 47.6667L67.6667 47.3333z"/>
<path style="fill:#eff2c4; stroke:none;" d="M69 47L70 48L69 47M114 47L115 48L114 47z"/>
<path style="fill:#c6c7c7; stroke:none;" d="M60 48L61 49L60 48M71 48L72 49L71 48z"/>
<path style="fill:#eff2c4; stroke:none;" d="M109 48L110 49L109 48M113 48L114 49L113 48M15 49L16 50L15 49z"/>
<path style="fill:#c6c7c7; stroke:none;" d="M59 49L60 50L59 49z"/>
<path style="fill:#eff2c4; stroke:none;" d="M73 49L74 50L73 49M108 49L109 50L108 49M112 49L113 50L112 49M26 50L27 51L26 50M74 50L75 51L74 50M107 50L108 51L107 50M16 51L17 52L16 51M75 51L76 52L75 51z"/>
<path style="fill:#c6c7c7; stroke:none;" d="M56 52L57 53L56 52z"/>
<path style="fill:#eff2c4; stroke:none;" d="M27 53L28 54L27 53M55 53L56 54L55 53z"/>
<path style="fill:#c6c7c7; stroke:none;" d="M76 53L77 54L76 53z"/>
<path style="fill:#eff2c4; stroke:none;" d="M18 54L19 55L18 54M28 54L29 55L28 54z"/>
<path style="fill:#c6c7c7; stroke:none;" d="M55 54L56 55L55 54z"/>
<path style="fill:#eff2c4; stroke:none;" d="M108 54L109 55L108 54M77 55L78 56L77 55M29 56L30 57L29 56M54 56L54 60L55 60L54 56z"/>
<path style="fill:#c6c7c7; stroke:none;" d="M77 56L77 61L78 61L77 56z"/>
<path style="fill:#eff2c4; stroke:none;" d="M101 56L102 57L101 56M100 57L101 58L100 57M21 58L22 59L21 58M99 58L100 59L99 58M22 59L23 60L22 59M102 59L103 60L102 59M23 60L24 61L23 60M96 60L97 61L96 60M101 60L102 61L101 60M24 61L25 62L24 61M77 61L78 62L77 61M95 61L96 62L95 61M25 62L26 63L25 62z"/>
<path style="fill:#c6c7c7; stroke:none;" d="M55 62L56 63L55 62z"/>
<path style="fill:#eff2c4; stroke:none;" d="M93 62L94 63L93 62M98 62L99 63L98 62M26 63L27 64L26 63M36 63L37 64L36 63z"/>
<path style="fill:#c6c7c7; stroke:none;" d="M76 63L77 64L76 63z"/>
<path style="fill:#eff2c4; stroke:none;" d="M91 63L92 64L91 63M37 64L38 65L37 64z"/>
<path style="fill:#c6c7c7; stroke:none;" d="M56 64L57 65L56 64M75 64L76 65L75 64z"/>
<path style="fill:#eff2c4; stroke:none;" d="M95 64L96 65L95 64M29 65L30 66L29 65M39 65L40 66L39 65z"/>
<path style="fill:#c6c7c7; stroke:none;" d="M57 65L58 66L57 65z"/>
<path style="fill:#eff2c4; stroke:none;" d="M87 65L88 66L87 65M93 65L94 66L93 65M41 66L42 67L41 66z"/>
<path style="fill:#c6c7c7; stroke:none;" d="M58 66L59 67L58 66z"/>
<path style="fill:#eff2c4; stroke:none;" d="M74 66L75 67L74 66M85 66L86 67L85 66M91 66L92 67L91 66M32 67L33 68L32 67M43 67L44 68L43 67z"/>
<path style="fill:#c6c7c7; stroke:none;" d="M59 67L60 68L59 67M72 67L73 68L72 67z"/>
<path style="fill:#eff2c4; stroke:none;" d="M73 67L74 68L73 67M82 67L83 68L82 67M89 67L90 68L89 67M34 68L35 69L34 68M46 68L47 69L46 68M60 68L61 69L60 68z"/>
<path style="fill:#c6c7c7; stroke:none;" d="M61 68L62 69L61 68M71 68L72 69L71 68z"/>
<path style="fill:#eff2c4; stroke:none;" d="M79 68L80 69L79 68M87 68L88 69L87 68M36 69L37 70L36 69M49.6667 69.3333L50.3333 69.6667L49.6667 69.3333M62 69L63 70L62 69z"/>
<path style="fill:#c6c7c7; stroke:none;" d="M63 69L63 70L69 70L63 69z"/>
<path style="fill:#eff2c4; stroke:none;" d="M66 70L66 71L71 71L66 70M74.6667 69.3333L75.3333 69.6667L74.6667 69.3333M84.6667 69.3333L85.3333 69.6667L84.6667 69.3333M38 70L39 71L38 70M54 70L54 71L58 71L54 70M81.6667 70.3333L82.3333 70.6667L81.6667 70.3333M41.6667 71.3333L42.3333 71.6667L41.6667 71.3333M78.6667 71.3333L79.3333 71.6667L78.6667 71.3333M45 72L45 73L48 73L45 72M73.6667 72.3333L74.3333 72.6667L73.6667 72.3333M51 73L51 74L57 74L51 73M65 73L65 74L70 74L65 73M536 88L537 89L536 88M549 88L550 89L549 88M660 88L661 89L660 88M44.6667 89.3333L45.3333 89.6667L44.6667 89.3333z"/>
<path style="fill:#c6c7c7; stroke:none;" d="M74.6667 89.3333L75.3333 89.6667L74.6667 89.3333M78 89L78 101L80 102L81 102L78 89z"/>
<path style="fill:#eff2c4; stroke:none;" d="M79 89L80 90L79 89z"/>
<path style="fill:#c6c7c7; stroke:none;" d="M482 89L484 91L482 89z"/>
<path style="fill:#999a9a; stroke:none;" d="M483 89L483 90L488 92L483 89z"/>
<path style="fill:#c6c7c7; stroke:none;" d="M486 89L487 90L486 89z"/>
<path style="fill:#eff2c4; stroke:none;" d="M517 89L518 90L517 89z"/>
<path style="fill:#999a9a; stroke:none;" d="M518 89L518 101L519 101L518 89M536 89L537 90L536 89z"/>
<path style="fill:#c6c7c7; stroke:none;" d="M537 89L536 91L537 89z"/>
<path style="fill:#999a9a; stroke:none;" d="M540 89C539.534 93.3641 539.005 98.4123 543 101L543 100C541.02 97.3454 541.02 95.6546 543 93L543 92L540 89z"/>
<path style="fill:#eff2c4; stroke:none;" d="M541 89L542 90L541 89M544 89L545 90L544 89z"/>
<path style="fill:#999a9a; stroke:none;" d="M545 89L545 101L546 101L545 89z"/>
<path style="fill:#c6c7c7; stroke:none;" d="M548 89L550 91L548 89z"/>
<path style="fill:#999a9a; stroke:none;" d="M549 89L550 90L549 89M561 89L561 101L562 101L561 89z"/>
<path style="fill:#eff2c4; stroke:none;" d="M562 89L563 90L562 89z"/>
<path style="fill:#c6c7c7; stroke:none;" d="M586 89L588 91L586 89z"/>
<path style="fill:#999a9a; stroke:none;" d="M587 89L587 90L592 92L587 89z"/>
<path style="fill:#c6c7c7; stroke:none;" d="M590 89L591 90L590 89z"/>
<path style="fill:#999a9a; stroke:none;" d="M637 89L637 93C629.043 91.8381 631.017 100.218 638 101L637 89z"/>
<path style="fill:#eff2c4; stroke:none;" d="M638 89L639 90L638 89z"/>
<path style="fill:#999a9a; stroke:none;" d="M641 89L641 101L642 101L641 89z"/>
<path style="fill:#eff2c4; stroke:none;" d="M642 89L643 90L642 89z"/>
<path style="fill:#c6c7c7; stroke:none;" d="M659 89L661 91L659 89z"/>
<path style="fill:#999a9a; stroke:none;" d="M660 89L661 90L660 89z"/>
<path style="fill:#eff2c4; stroke:none;" d="M663 89L664 90L663 89z"/>
<path style="fill:#999a9a; stroke:none;" d="M664 89C663.534 93.3641 663.005 98.4123 667 101L667 100C665.02 97.3454 665.02 95.6546 667 93L667 92L664 89z"/>
<path style="fill:#c6c7c7; stroke:none;" d="M686 89L687 90L686 89z"/>
<path style="fill:#999a9a; stroke:none;" d="M687 89L684 92L684 93L686 101L687 101L689 93L689 92L689 90L687 89z"/>
<path style="fill:#eff2c4; stroke:none;" d="M689.667 89.3333L690.333 89.6667L689.667 89.3333z"/>
<path style="fill:#999a9a; stroke:none;" d="M691 89L691 101L692 101L691 89M750 89L750 93C742.043 91.8382 744.017 100.218 751 101L750 89z"/>
<path style="fill:#eff2c4; stroke:none;" d="M751 89L752 90L751 89z"/>
<path style="fill:#999a9a; stroke:none;" d="M759 89L759 101L767 101L767 100L760 100L760 95L764 95L764 94L760 94L760 90L766 90L759 89z"/>
<path style="fill:#c6c7c7; stroke:none;" d="M766 89L767 90L766 89M785 89L785 91L787 89L785 89M788 89L790 91L790 89L788 89z"/>
<path style="fill:#eff2c4; stroke:none;" d="M792 89L793 90L792 89z"/>
<path style="fill:#999a9a; stroke:none;" d="M793 89L793 101L794 101C794.125 97.1224 794.502 94.9282 798 93L798 101L799 101C798.985 96.698 799.404 92.1742 794 93L793 89M844 89L844 101L851 100L851 99C844.034 99.6036 846.3 93.5771 844 89z"/>
<path style="fill:#eff2c4; stroke:none;" d="M845 89L846 90L845 89M876 89L877 90L876 89z"/>
<path style="fill:#999a9a; stroke:none;" d="M877 89C876.534 93.3641 876.005 98.4123 880 101L880 100C878.02 97.3454 878.02 95.6546 880 93L880 92L877 89z"/>
<path style="fill:#c6c7c7; stroke:none;" d="M44 90L44 101L46 102L47 102L48 93L48 92L46 90L44 90z"/>
<path style="fill:#eff2c4; stroke:none;" d="M74.6667 90.3333L75.3333 90.6667L74.6667 90.3333z"/>
<path style="fill:#999a9a; stroke:none;" d="M481 90C479.729 95.403 479.915 99.701 486 101L486 100C481.244 97.5994 481.072 94.6788 483 90L481 90z"/>
<path style="fill:#eff2c4; stroke:none;" d="M484 90L485 91L484 90z"/>
<path style="fill:#c6c7c7; stroke:none;" d="M485 90L486 91L485 90z"/>
<path style="fill:#eff2c4; stroke:none;" d="M488 90L489 91L488 90z"/>
<path style="fill:#c6c7c7; stroke:none;" d="M517 90L517 100L518 100L517 90z"/>
<path style="fill:#eff2c4; stroke:none;" d="M537 90L538 91L537 90z"/>
<path style="fill:#c6c7c7; stroke:none;" d="M541.333 90.6667L541.667 91.3333L541.333 90.6667M544 90L544 100L545 100L544 90z"/>
<path style="fill:#eff2c4; stroke:none;" d="M548 90L549 91L548 90z"/>
<path style="fill:#c6c7c7; stroke:none;" d="M562 90L563 94L564 94L562 90z"/>
<path style="fill:#999a9a; stroke:none;" d="M585 90C583.729 95.403 583.915 99.701 590 101L590 100C585.244 97.5995 585.073 94.6788 587 90L585 90z"/>
<path style="fill:#eff2c4; stroke:none;" d="M588 90L589 91L588 90z"/>
<path style="fill:#c6c7c7; stroke:none;" d="M589 90L590 91L589 90z"/>
<path style="fill:#eff2c4; stroke:none;" d="M592 90L593 91L592 90z"/>
<path style="fill:#c6c7c7; stroke:none;" d="M638 90L638 100L639 100L638 90M642 90L643 94L644 94L642 90z"/>
<path style="fill:#eff2c4; stroke:none;" d="M659 90L660 91L659 90z"/>
<path style="fill:#c6c7c7; stroke:none;" d="M663.333 90.6667L663.667 91.3333L663.333 90.6667z"/>
<path style="fill:#eff2c4; stroke:none;" d="M685 90L686 91L685 90M687 90L688 91L687 90z"/>
<path style="fill:#c6c7c7; stroke:none;" d="M690 90L690 100L691 100L690 90M751 90L751 100L752 100L751 90M760 90L760 94L761 94L760 90z"/>
<path style="fill:#eff2c4; stroke:none;" d="M761 90L761 91L766 91L761 90z"/>
<path style="fill:#999a9a; stroke:none;" d="M786 90L787 91L786 90M788 90L789 91L788 90z"/>
<path style="fill:#c6c7c7; stroke:none;" d="M792 90L792 100L793 100L792 90M845 90L846 100L847 100L845 90M876.333 90.6667L876.667 91.3333L876.333 90.6667M480 91L481 92L480 91M488 91L487 93L489 93L488 91M584 91L585 92L584 91M592 91L591 93L593 93L592 91M685 91L686 92L685 91z"/>
<path style="fill:#999a9a; stroke:none;" d="M44.6667 92.3333L45.3333 92.6667L44.6667 92.3333z"/>
<path style="fill:#c6c7c7; stroke:none;" d="M50.3333 92.6667L50.6667 93.3333L50.3333 92.6667z"/>
<path style="fill:#999a9a; stroke:none;" d="M51.6667 92.3333L52.3333 92.6667L51.6667 92.3333z"/>
<path style="fill:#c6c7c7; stroke:none;" d="M53.3333 92.6667L53.6667 93.3333L53.3333 92.6667z"/>
<path style="fill:#eff2c4; stroke:none;" d="M54 92L55 93L54 92M58 92L59 93L58 92z"/>
<path style="fill:#c6c7c7; stroke:none;" d="M59 92L57 96L59 92z"/>
<path style="fill:#999a9a; stroke:none;" d="M60.6667 92.3333L61.3333 92.6667L60.6667 92.3333z"/>
<path style="fill:#c6c7c7; stroke:none;" d="M62 92L62 94L64 94L62 92z"/>
<path style="fill:#eff2c4; stroke:none;" d="M65.3333 92.6667L65.6667 93.3333L65.3333 92.6667z"/>
<path style="fill:#c6c7c7; stroke:none;" d="M66 92L67 93L66 92M71.6667 92.3333L72.3333 92.6667L71.6667 92.3333M74 92L74 101L76 101L74 92z"/>
<path style="fill:#eff2c4; stroke:none;" d="M75 92L76 93L75 92z"/>
<path style="fill:#999a9a; stroke:none;" d="M78.6667 92.3333L79.3333 92.6667L78.6667 92.3333z"/>
<path style="fill:#eff2c4; stroke:none;" d="M80 93L80 94L84 95L84 92L80 93z"/>
<path style="fill:#c6c7c7; stroke:none;" d="M84.3333 92.6667L84.6667 93.3333L84.3333 92.6667z"/>
<path style="fill:#999a9a; stroke:none;" d="M85.6667 92.3333L86.3333 92.6667L85.6667 92.3333z"/>
<path style="fill:#c6c7c7; stroke:none;" d="M87 92L87 94L89 94L87 92M481 92L482 93L481 92M492 92L491 94L492 92z"/>
<path style="fill:#999a9a; stroke:none;" d="M492 93L492 94L497 93L495 95L495 96L497 101C498.977 96.2781 497.675 91.7085 492 93z"/>
<path style="fill:#eff2c4; stroke:none;" d="M497 92L498 93L497 92M500 92L501 93L500 92z"/>
<path style="fill:#999a9a; stroke:none;" d="M501 92L501 101L502 101C502.125 97.1224 502.502 94.9281 506 93L506 101L507 101C506.981 95.6293 506.836 92.6603 501 92z"/>
<path style="fill:#eff2c4; stroke:none;" d="M502 92L503 93L502 92z"/>
<path style="fill:#c6c7c7; stroke:none;" d="M506 92L507 93L506 92M509 92L510 93L509 92z"/>
<path style="fill:#999a9a; stroke:none;" d="M510 92L510 93L514 93L509 101L516 101L516 100L511 100L516 92L510 92z"/>
<path style="fill:#eff2c4; stroke:none;" d="M519 92L520 93L519 92z"/>
<path style="fill:#c6c7c7; stroke:none;" d="M520.333 92.6667L520.667 93.3333L520.333 92.6667z"/>
<path style="fill:#999a9a; stroke:none;" d="M521 92L521 93L524 93L524 101L525 101C524.985 96.8496 525.387 93.4559 521 92z"/>
<path style="fill:#eff2c4; stroke:none;" d="M524 92L525 93L524 92z"/>
<path style="fill:#c6c7c7; stroke:none;" d="M528 92L527 93L527 94L528 95L529 95L530 94L530 93L528 92z"/>
<path style="fill:#999a9a; stroke:none;" d="M529 92L529 93L533 96L528 94L527 94C527.301 97.9519 528.118 99.8224 532 101L532 100L528 97L534 97L529 92z"/>
<path style="fill:#c6c7c7; stroke:none;" d="M532 92L533 93L532 92z"/>
<path style="fill:#999a9a; stroke:none;" d="M536 92L536 101L537 101L536 92z"/>
<path style="fill:#eff2c4; stroke:none;" d="M537 92L538 93L537 92z"/>
<path style="fill:#c6c7c7; stroke:none;" d="M538 92L539 93L538 92z"/>
<path style="fill:#eff2c4; stroke:none;" d="M543 92L544 93L543 92M548 92L549 93L548 92z"/>
<path style="fill:#999a9a; stroke:none;" d="M549 92L549 101L550 101L549 92z"/>
<path style="fill:#c6c7c7; stroke:none;" d="M553 92L552 93L552 94L553 95L554 95L555 94L555 93L553 92z"/>
<path style="fill:#999a9a; stroke:none;" d="M554 92L554 93L558 94L558 93L554 92z"/>
<path style="fill:#c6c7c7; stroke:none;" d="M557 92L558 93L557 92z"/>
<path style="fill:#999a9a; stroke:none;" d="M564 92L564 93L567 93L567 101L568 101C567.985 96.8496 568.387 93.4559 564 92z"/>
<path style="fill:#eff2c4; stroke:none;" d="M567 92L568 93L567 92M571 92L570 94L571 92z"/>
<path style="fill:#999a9a; stroke:none;" d="M571 93L571 94L576 96L570 95C570.568 98.5824 571.508 99.9433 575 101L575 100L571 97L577 97C575.927 93.4643 574.675 92.46 571 93z"/>
<path style="fill:#c6c7c7; stroke:none;" d="M575 92L576 93L575 92M585 92L586 93L585 92z"/>
<path style="fill:#eff2c4; stroke:none;" d="M596 92L597 93L596 92z"/>
<path style="fill:#c6c7c7; stroke:none;" d="M597 92L595 95L596 96L597 92z"/>
<path style="fill:#999a9a; stroke:none;" d="M598 92L598 93L602 94L602 93L598 92z"/>
<path style="fill:#eff2c4; stroke:none;" d="M601 92L602 93L601 92M602 94L603 95L605 92L602 94z"/>
<path style="fill:#999a9a; stroke:none;" d="M604 96L609 100L604 99L604 100C611.721 101.759 607.827 96.347 605 93L609 94C606.239 92.1135 605.018 92.9347 604 96z"/>
<path style="fill:#c6c7c7; stroke:none;" d="M608 92L609 93L608 92z"/>
<path style="fill:#999a9a; stroke:none;" d="M612 92C612.015 96.1504 611.613 99.5441 616 101L616 100L613 100L612 92z"/>
<path style="fill:#eff2c4; stroke:none;" d="M613 92L614 93L613 92z"/>
<path style="fill:#999a9a; stroke:none;" d="M618 92L618 101L619 101L618 92z"/>
<path style="fill:#eff2c4; stroke:none;" d="M619 92L620 93L619 92z"/>
<path style="fill:#999a9a; stroke:none;" d="M622 92L622 101L623 101L622 92z"/>
<path style="fill:#c6c7c7; stroke:none;" d="M623 92L625 94L625 92L623 92z"/>
<path style="fill:#999a9a; stroke:none;" d="M625 92L625 93L628 93L628 101L629 101C628.985 96.8496 629.387 93.4559 625 92z"/>
<path style="fill:#eff2c4; stroke:none;" d="M628 92L629 93L628 92z"/>
<path style="fill:#c6c7c7; stroke:none;" d="M632 92L633 93L632 92M636 92L637 93L636 92z"/>
<path style="fill:#999a9a; stroke:none;" d="M644 92L644 93L647 93L647 101L648 101C647.985 96.8496 648.387 93.4559 644 92z"/>
<path style="fill:#eff2c4; stroke:none;" d="M647 92L648 93L647 92M651 92L652 93L651 92z"/>
<path style="fill:#c6c7c7; stroke:none;" d="M652 92L650 95L651 96L652 92z"/>
<path style="fill:#999a9a; stroke:none;" d="M653 92L653 93L657 94L657 93L653 92z"/>
<path style="fill:#eff2c4; stroke:none;" d="M656 92L657 93L656 92M659 92L660 93L659 92z"/>
<path style="fill:#999a9a; stroke:none;" d="M660 92L660 101L661 101L660 92z"/>
<path style="fill:#c6c7c7; stroke:none;" d="M662 92L663 93L662 92z"/>
<path style="fill:#eff2c4; stroke:none;" d="M668 92L667 95L668 95L668 92z"/>
<path style="fill:#999a9a; stroke:none;" d="M668 96L673 100L668 99L668 100C675.721 101.759 671.827 96.347 669 93L673 94C670.239 92.1135 669.018 92.9347 668 96z"/>
<path style="fill:#c6c7c7; stroke:none;" d="M672 92L673 93L672 92z"/>
<path style="fill:#999a9a; stroke:none;" d="M676 92L676 104L677 104L676 92z"/>
<path style="fill:#c6c7c7; stroke:none;" d="M677 92L677 103L678 103L679 92L677 92z"/>
<path style="fill:#999a9a; stroke:none;" d="M679.667 92.3333L680.333 92.6667L679.667 92.3333z"/>
<path style="fill:#c6c7c7; stroke:none;" d="M681 92L681 100L684 100L684 94L681 92z"/>
<path style="fill:#eff2c4; stroke:none;" d="M682 92L684 94L682 92z"/>
<path style="fill:#c6c7c7; stroke:none;" d="M695 92L694 93L694 94L695 95L696 95L697 94L697 93L695 92z"/>
<path style="fill:#999a9a; stroke:none;" d="M696 92L696 93L700 94L700 93L696 92z"/>
<path style="fill:#eff2c4; stroke:none;" d="M699 92L700 93L699 92z"/>
<path style="fill:#c6c7c7; stroke:none;" d="M704.333 92.6667L704.667 93.3333L704.333 92.6667z"/>
<path style="fill:#999a9a; stroke:none;" d="M705 92L705 93L708 93L708 97L709 97L710 92L705 92z"/>
<path style="fill:#c6c7c7; stroke:none;" d="M708 92L709 93L708 92M712 92L711 93L711 94L712 95L713 95L714 94L714 93L712 92z"/>
<path style="fill:#999a9a; stroke:none;" d="M713 92L713 93L717 96L712 94L711 94C711.301 97.9519 712.118 99.8224 716 101L716 100L712 97L718 97L713 92z"/>
<path style="fill:#c6c7c7; stroke:none;" d="M716 92L717 93L716 92z"/>
<path style="fill:#999a9a; stroke:none;" d="M725 92C725.015 96.1504 724.613 99.5441 729 101L729 100L726 100L725 92z"/>
<path style="fill:#eff2c4; stroke:none;" d="M726 92L727 93L726 92M730 92L731 93L730 92z"/>
<path style="fill:#999a9a; stroke:none;" d="M731 92L731 101L732 101L731 92z"/>
<path style="fill:#eff2c4; stroke:none;" d="M734 92L735 93L734 92z"/>
<path style="fill:#999a9a; stroke:none;" d="M735 92L735 101L736 101L735 92z"/>
<path style="fill:#eff2c4; stroke:none;" d="M736 92L737 93L736 92z"/>
<path style="fill:#c6c7c7; stroke:none;" d="M737.333 92.6667L737.667 93.3333L737.333 92.6667z"/>
<path style="fill:#999a9a; stroke:none;" d="M738 92L738 93L741 93L741 101L742 101C741.985 96.8496 742.387 93.4559 738 92z"/>
<path style="fill:#eff2c4; stroke:none;" d="M741 92L742 93L741 92z"/>
<path style="fill:#c6c7c7; stroke:none;" d="M745 92L746 93L745 92M749 92L750 93L749 92z"/>
<path style="fill:#eff2c4; stroke:none;" d="M768 92L769 93L768 92z"/>
<path style="fill:#999a9a; stroke:none;" d="M769 92L769 101L770 101L773 93L773 92L769 92z"/>
<path style="fill:#eff2c4; stroke:none;" d="M770 92L771 93L770 92M773 92L774 93L773 92z"/>
<path style="fill:#999a9a; stroke:none;" d="M774 92L774 101L775 101L774 92z"/>
<path style="fill:#c6c7c7; stroke:none;" d="M775 92L777 94L777 92L775 92z"/>
<path style="fill:#999a9a; stroke:none;" d="M777 92L777 93L780 93L780 101L781 101C780.985 96.8496 781.387 93.4559 777 92z"/>
<path style="fill:#eff2c4; stroke:none;" d="M780 92L781 93L780 92z"/>
<path style="fill:#c6c7c7; stroke:none;" d="M783 93L783 94L786 94L783 93z"/>
<path style="fill:#999a9a; stroke:none;" d="M785 92L785 93L789 93L787 95L787 96L789 101C790.838 96.6093 789.946 92.8255 785 92z"/>
<path style="fill:#eff2c4; stroke:none;" d="M789 92L790 93L789 92M794 92L795 93L794 92z"/>
<path style="fill:#c6c7c7; stroke:none;" d="M798 92L799 93L798 92z"/>
<path style="fill:#999a9a; stroke:none;" d="M802 92L802 101L803 101L802 92z"/>
<path style="fill:#c6c7c7; stroke:none;" d="M803 92L803 93L807 93L807 92L803 92z"/>
<path style="fill:#999a9a; stroke:none;" d="M805 92L806 93L805 92M808 92C808.015 96.1504 807.613 99.5441 812 101L812 100L809 100L808 92z"/>
<path style="fill:#eff2c4; stroke:none;" d="M809 92L810 93L809 92M813 92L814 93L813 92z"/>
<path style="fill:#999a9a; stroke:none;" d="M814 92L814 101L815 101L814 92z"/>
<path style="fill:#eff2c4; stroke:none;" d="M817 92L818 93L817 92z"/>
<path style="fill:#999a9a; stroke:none;" d="M818 92L818 101L819 101L818 92z"/>
<path style="fill:#eff2c4; stroke:none;" d="M819 92L820 93L819 92z"/>
<path style="fill:#c6c7c7; stroke:none;" d="M820.333 92.6667L820.667 93.3333L820.333 92.6667z"/>
<path style="fill:#999a9a; stroke:none;" d="M821 92L821 93L824 93L824 101L825 101C824.985 96.8496 825.387 93.4559 821 92z"/>
<path style="fill:#eff2c4; stroke:none;" d="M824 92L825 93L824 92z"/>
<path style="fill:#c6c7c7; stroke:none;" d="M828.333 92.6667L828.667 93.3333L828.333 92.6667z"/>
<path style="fill:#999a9a; stroke:none;" d="M829 92L829 93L833 94L833 96L828 97L828 93L827 93L826 103L827 103L832 100L832 99L828 99L828 98C831.527 97.4392 833.063 96.674 833 93L836 96L837 96L835 92L829 92z"/>
<path style="fill:#c6c7c7; stroke:none;" d="M832 92L833 93L832 92z"/>
<path style="fill:#eff2c4; stroke:none;" d="M835 92L836 93L835 92z"/>
<path style="fill:#c6c7c7; stroke:none;" d="M836 92L836 95L837 95L836 92z"/>
<path style="fill:#999a9a; stroke:none;" d="M837 92L837 93L841 94L841 93L837 92z"/>
<path style="fill:#c6c7c7; stroke:none;" d="M840 92L841 93L840 92z"/>
<path style="fill:#999a9a; stroke:none;" d="M847 92L847 93L851 94L851 93L847 92z"/>
<path style="fill:#eff2c4; stroke:none;" d="M850 92L851 93L850 92z"/>
<path style="fill:#c6c7c7; stroke:none;" d="M854 92L853 93L853 94L854 95L855 95L856 94L856 93L854 92z"/>
<path style="fill:#999a9a; stroke:none;" d="M855 92L855 93L859 94L859 93L855 92z"/>
<path style="fill:#eff2c4; stroke:none;" d="M858 92L859 93L858 92z"/>
<path style="fill:#999a9a; stroke:none;" d="M862 92L862 101L863 101L862 92z"/>
<path style="fill:#c6c7c7; stroke:none;" d="M863 92L863 93L867 93L867 92L863 92z"/>
<path style="fill:#999a9a; stroke:none;" d="M865 92L866 93L865 92z"/>
<path style="fill:#c6c7c7; stroke:none;" d="M868 92L867 94L868 92z"/>
<path style="fill:#999a9a; stroke:none;" d="M868 93L868 94L873 93L871 95L871 96L873 101C874.977 96.2781 873.675 91.7085 868 93z"/>
<path style="fill:#eff2c4; stroke:none;" d="M873 92L874 93L873 92z"/>
<path style="fill:#c6c7c7; stroke:none;" d="M875 92L876 93L875 92z"/>
<path style="fill:#999a9a; stroke:none;" d="M881 92C881.015 96.1504 880.613 99.5441 885 101L885 100L882 100L881 92z"/>
<path style="fill:#eff2c4; stroke:none;" d="M882 92L883 93L882 92z"/>
<path style="fill:#999a9a; stroke:none;" d="M887 92L887 101L888 101L887 92z"/>
<path style="fill:#eff2c4; stroke:none;" d="M888 92L889 93L888 92z"/>
<path style="fill:#999a9a; stroke:none;" d="M891 92L891 101L892 101L891 92z"/>
<path style="fill:#c6c7c7; stroke:none;" d="M892 92L894 94L894 92L892 92z"/>
<path style="fill:#999a9a; stroke:none;" d="M894 92L894 93L897 93L897 101L898 101C897.985 96.8496 898.387 93.4559 894 92z"/>
<path style="fill:#eff2c4; stroke:none;" d="M897 92L898 93L897 92z"/>
<path style="fill:#c6c7c7; stroke:none;" d="M901 92L900 97L901 97L901 92z"/>
<path style="fill:#999a9a; stroke:none;" d="M901 93L901 94L906 94L906 96L901 96L900 103L901 103L901 100L907 101L907 102L902 103L902 104L908 100L901 99L901 98L908 93L901 93z"/>
<path style="fill:#c6c7c7; stroke:none;" d="M905 92L906 93L905 92z"/>
<path style="fill:#eff2c4; stroke:none;" d="M43 93L44 94L43 93M46 93L47 94L46 93z"/>
<path style="fill:#999a9a; stroke:none;" d="M49 93L50 94L49 93M54 93L54 101L55 101L54 93M58 93L59 94L58 93z"/>
<path style="fill:#ffffff; stroke:none;" d="M60 93L59 100C62.7979 98.7397 62.9792 96.6742 62 93L60 93z"/>
<path style="fill:#999a9a; stroke:none;" d="M66.3333 93.6667L66.6667 94.3333L66.3333 93.6667M71.3333 93.6667L71.6667 94.3333L71.3333 93.6667z"/>
<path style="fill:#eff2c4; stroke:none;" d="M72 93L73 94L72 93M77 93L78 94L77 93z"/>
<path style="fill:#ffffff; stroke:none;" d="M81 93L80 100L87 93L81 93z"/>
<path style="fill:#999a9a; stroke:none;" d="M83 93L84 94L83 93z"/>
<path style="fill:#c6c7c7; stroke:none;" d="M479 93L479 96L480 96L479 93z"/>
<path style="fill:#eff2c4; stroke:none;" d="M481 93L482 94L481 93M493 93L494 94L493 93z"/>
<path style="fill:#c6c7c7; stroke:none;" d="M496.333 93.6667L496.667 94.3333L496.333 93.6667M500 93L500 100L501 100L500 93M503 93L504 94L503 93M505 93L506 94L505 93M513 93L514 94L513 93M515 93L516 94L515 93z"/>
<path style="fill:#eff2c4; stroke:none;" d="M522 93L523 94L522 93z"/>
<path style="fill:#c6c7c7; stroke:none;" d="M523 93L523 100L524 100L523 93z"/>
<path style="fill:#999a9a; stroke:none;" d="M528 93L529 94L528 93z"/>
<path style="fill:#ffffff; stroke:none;" d="M530 93L528 96L532 96L530 93z"/>
<path style="fill:#c6c7c7; stroke:none;" d="M531 93L532 94L531 93M533 93L534 94L533 93M537 93L537 100L538 100L537 93M541 93L541 100L542 100L541 93z"/>
<path style="fill:#ffffff; stroke:none;" d="M542 93L542 100L544 100L544 93L542 93z"/>
<path style="fill:#c6c7c7; stroke:none;" d="M548 93L548 100L549 100L548 93z"/>
<path style="fill:#999a9a; stroke:none;" d="M553 93L554 94L553 93z"/>
<path style="fill:#eff2c4; stroke:none;" d="M556 93L557 94L556 93z"/>
<path style="fill:#c6c7c7; stroke:none;" d="M558.333 93.6667L558.667 94.3333L558.333 93.6667z"/>
<path style="fill:#eff2c4; stroke:none;" d="M564 93L565 94L564 93z"/>
<path style="fill:#c6c7c7; stroke:none;" d="M566 93L567 94L566 93M570 95L571 96L573 93L570 95z"/>
<path style="fill:#ffffff; stroke:none;" d="M573 93L572 96L575 96L573 93z"/>
<path style="fill:#eff2c4; stroke:none;" d="M574 93L575 94L574 93z"/>
<path style="fill:#c6c7c7; stroke:none;" d="M576 93L577 94L576 93M583 93L583 96L584 96L583 93z"/>
<path style="fill:#eff2c4; stroke:none;" d="M585 93L586 94L585 93z"/>
<path style="fill:#999a9a; stroke:none;" d="M596 93L597 94L596 93z"/>
<path style="fill:#eff2c4; stroke:none;" d="M598 93L599 94L598 93z"/>
<path style="fill:#ffffff; stroke:none;" d="M597 96L601 96L600 93L597 96z"/>
<path style="fill:#c6c7c7; stroke:none;" d="M600 93L601 94L600 93M605 93L606 94L605 93z"/>
<path style="fill:#eff2c4; stroke:none;" d="M607 93L608 94L607 93z"/>
<path style="fill:#c6c7c7; stroke:none;" d="M609 93L610 94L609 93M613 93L613 100L614 100L613 93M619 93L619 100L620 100L619 93z"/>
<path style="fill:#eff2c4; stroke:none;" d="M625 93L626 94L625 93z"/>
<path style="fill:#c6c7c7; stroke:none;" d="M627 93L627 100L628 100L627 93M631 93L632 94L631 93M633 93L632 95L633 93z"/>
<path style="fill:#ffffff; stroke:none;" d="M634 93C630.592 101.272 640.389 97.6045 634 93z"/>
<path style="fill:#c6c7c7; stroke:none;" d="M635 93L636 94L635 93z"/>
<path style="fill:#eff2c4; stroke:none;" d="M644 93L645 94L644 93z"/>
<path style="fill:#c6c7c7; stroke:none;" d="M646 93L647 94L646 93z"/>
<path style="fill:#999a9a; stroke:none;" d="M651 93L652 94L651 93z"/>
<path style="fill:#eff2c4; stroke:none;" d="M653 93L654 94L653 93z"/>
<path style="fill:#ffffff; stroke:none;" d="M652 96L656 96L655 93L652 96z"/>
<path style="fill:#c6c7c7; stroke:none;" d="M655 93L656 94L655 93z"/>
<path style="fill:#eff2c4; stroke:none;" d="M657 93L658 94L657 93z"/>
<path style="fill:#c6c7c7; stroke:none;" d="M659 93L659 100L660 100L659 93M663 93L663 99L664 99L663 93z"/>
<path style="fill:#ffffff; stroke:none;" d="M665 93L665 99L673 99L665 93z"/>
<path style="fill:#c6c7c7; stroke:none;" d="M669 93L670 94L669 93z"/>
<path style="fill:#eff2c4; stroke:none;" d="M671 93L672 94L671 93z"/>
<path style="fill:#c6c7c7; stroke:none;" d="M673 93L674 94L673 93z"/>
<path style="fill:#ffffff; stroke:none;" d="M679 93L679 100C681.859 97.9346 681.903 96.3366 681 93L679 93z"/>
<path style="fill:#999a9a; stroke:none;" d="M682 93L683 94L682 93z"/>
<path style="fill:#c6c7c7; stroke:none;" d="M685 93L685 100L686 100L685 93z"/>
<path style="fill:#999a9a; stroke:none;" d="M695 93L696 94L695 93z"/>
<path style="fill:#ffffff; stroke:none;" d="M697 93L695 96L699 96L697 93z"/>
<path style="fill:#c6c7c7; stroke:none;" d="M698 93L699 94L698 93z"/>
<path style="fill:#eff2c4; stroke:none;" d="M700 93L701 94L700 93z"/>
<path style="fill:#999a9a; stroke:none;" d="M703 93L702 103L703 103L708 100L708 99L704 99L704 98L707 98L707 97L704 97L703 93z"/>
<path style="fill:#eff2c4; stroke:none;" d="M705 93L706 94L705 93z"/>
<path style="fill:#ffffff; stroke:none;" d="M704 94L704 96L705 97L707 97L707 93L704 94z"/>
<path style="fill:#c6c7c7; stroke:none;" d="M707 93L708 94L707 93z"/>
<path style="fill:#999a9a; stroke:none;" d="M712 93L713 94L712 93z"/>
<path style="fill:#ffffff; stroke:none;" d="M714 93L712 96L716 96L714 93z"/>
<path style="fill:#c6c7c7; stroke:none;" d="M715 93L716 94L715 93M717 93L718 94L717 93M726 93L726 100L727 100L726 93M730 93L730 99L731 99L730 93M734 93L734 100L735 100L734 93z"/>
<path style="fill:#eff2c4; stroke:none;" d="M739 93L740 94L739 93z"/>
<path style="fill:#c6c7c7; stroke:none;" d="M740 93L740 100L741 100L740 93M744 93L745 94L744 93M746 93L745 95L746 93z"/>
<path style="fill:#ffffff; stroke:none;" d="M747 93C743.592 101.272 753.389 97.6045 747 93z"/>
<path style="fill:#c6c7c7; stroke:none;" d="M748 93L749 94L748 93M768 93L768 100L769 100L768 93M771.667 93.3333L772.333 93.6667L771.667 93.3333z"/>
<path style="fill:#eff2c4; stroke:none;" d="M777 93L778 94L777 93z"/>
<path style="fill:#c6c7c7; stroke:none;" d="M779 93L780 94L779 93z"/>
<path style="fill:#999a9a; stroke:none;" d="M784 93L785 94L784 93z"/>
<path style="fill:#ffffff; stroke:none;" d="M785 95L788 93L785 95z"/>
<path style="fill:#c6c7c7; stroke:none;" d="M788.333 93.6667L788.667 94.3333L788.333 93.6667M795 93L796 94L795 93M797 93L798 94L797 93M809 93L809 100L810 100L809 93M813 93L813 99L814 99L813 93M817 93L817 100L818 100L817 93z"/>
<path style="fill:#eff2c4; stroke:none;" d="M822 93L823 94L822 93z"/>
<path style="fill:#c6c7c7; stroke:none;" d="M823 93L823 100L824 100L823 93z"/>
<path style="fill:#eff2c4; stroke:none;" d="M829 93L828 95L829 93z"/>
<path style="fill:#ffffff; stroke:none;" d="M830 93L828 96L831 97L830 93z"/>
<path style="fill:#eff2c4; stroke:none;" d="M831 93L832 94L831 93z"/>
<path style="fill:#c6c7c7; stroke:none;" d="M833 93L834 94L833 93z"/>
<path style="fill:#ffffff; stroke:none;" d="M834 93L829 98L829 99L835 100L835 98L840 99L834 93z"/>
<path style="fill:#eff2c4; stroke:none;" d="M837 93L838 94L837 93z"/>
<path style="fill:#c6c7c7; stroke:none;" d="M839 93L840 94L839 93M841 93L842 94L841 93z"/>
<path style="fill:#ffffff; stroke:none;" d="M847 93L847 100L849 100C849.903 96.6634 849.859 95.0654 847 93z"/>
<path style="fill:#eff2c4; stroke:none;" d="M848 93L849 94L848 93z"/>
<path style="fill:#c6c7c7; stroke:none;" d="M849 93L850 94L849 93z"/>
<path style="fill:#eff2c4; stroke:none;" d="M851 93L852 94L851 93z"/>
<path style="fill:#999a9a; stroke:none;" d="M854 93L855 94L854 93z"/>
<path style="fill:#ffffff; stroke:none;" d="M856 93L854 96L858 96L856 93z"/>
<path style="fill:#c6c7c7; stroke:none;" d="M857 93L858 94L857 93z"/>
<path style="fill:#eff2c4; stroke:none;" d="M859 93L860 94L859 93M869 93L870 94L869 93z"/>
<path style="fill:#c6c7c7; stroke:none;" d="M872.333 93.6667L872.667 94.3333L872.333 93.6667M876 93L876 99L877 99L876 93M882 93L882 100L883 100L882 93M888 93L888 100L889 100L888 93z"/>
<path style="fill:#eff2c4; stroke:none;" d="M894 93L895 94L894 93z"/>
<path style="fill:#c6c7c7; stroke:none;" d="M896 93L896 100L897 100L896 93z"/>
<path style="fill:#eff2c4; stroke:none;" d="M902 93L903 94L902 93z"/>
<path style="fill:#ffffff; stroke:none;" d="M903 93L903 97L904 97L903 93z"/>
<path style="fill:#eff2c4; stroke:none;" d="M904 93L905 94L904 93z"/>
<path style="fill:#c6c7c7; stroke:none;" d="M906 93L907 94L906 93z"/>
<path style="fill:#ffffff; stroke:none;" d="M907 93L902 98L902 99L908 99L907 93z"/>
<path style="fill:#eff2c4; stroke:none;" d="M49 94L50 95L49 94z"/>
<path style="fill:#999a9a; stroke:none;" d="M63 94L64 95L63 94z"/>
<path style="fill:#eff2c4; stroke:none;" d="M64 94L65 95L64 94M67 94L68 95L67 94M70 94L71 95L70 94M87 94L86 96L87 94z"/>
<path style="fill:#999a9a; stroke:none;" d="M88 94L88 101L89 101L88 94z"/>
<path style="fill:#eff2c4; stroke:none;" d="M491 94L492 95L491 94M502 94L503 95L502 94M507 94L508 95L507 94z"/>
<path style="fill:#c6c7c7; stroke:none;" d="M514 94L515 95L514 94z"/>
<path style="fill:#eff2c4; stroke:none;" d="M519 94L520 95L519 94z"/>
<path style="fill:#c6c7c7; stroke:none;" d="M532 94L533 95L532 94z"/>
<path style="fill:#999a9a; stroke:none;" d="M552 94C552.301 97.9519 553.118 99.8224 557 101L557 100L552 94z"/>
<path style="fill:#eff2c4; stroke:none;" d="M557 94L558 95L557 94z"/>
<path style="fill:#c6c7c7; stroke:none;" d="M562 94L562 100L563 100L562 94z"/>
<path style="fill:#eff2c4; stroke:none;" d="M568 94L569 95L568 94z"/>
<path style="fill:#c6c7c7; stroke:none;" d="M575 94L576 95L575 94M601 94L601 96L603 94L601 94M623 94L623 100L624 100L623 94M642 94L642 100L643 100L642 94z"/>
<path style="fill:#eff2c4; stroke:none;" d="M648 94L649 95L648 94z"/>
<path style="fill:#c6c7c7; stroke:none;" d="M656 94L656 96L658 94L656 94z"/>
<path style="fill:#999a9a; stroke:none;" d="M694 94C694.326 98.2783 695.43 100.667 700 100L700 99L695 97L701 95L694 94z"/>
<path style="fill:#c6c7c7; stroke:none;" d="M699 94L699 96L701 94L699 94z"/>
<path style="fill:#eff2c4; stroke:none;" d="M702.333 94.6667L702.667 95.3333L702.333 94.6667M709 94L709 96L711 96L709 94z"/>
<path style="fill:#c6c7c7; stroke:none;" d="M716 94L717 95L716 94z"/>
<path style="fill:#eff2c4; stroke:none;" d="M736 94L737 95L736 94z"/>
<path style="fill:#c6c7c7; stroke:none;" d="M764 94L765 95L764 94M770 94L771 95L770 94M775 94L775 100L776 100L775 94z"/>
<path style="fill:#eff2c4; stroke:none;" d="M781 94L782 95L781 94M784 94L785 95L784 94M794 94L795 95L794 94M799 94L800 95L799 94M819 94L820 95L819 94M826.333 94.6667L826.667 95.3333L826.333 94.6667z"/>
<path style="fill:#c6c7c7; stroke:none;" d="M832.333 94.6667L832.667 95.3333L832.333 94.6667z"/>
<path style="fill:#eff2c4; stroke:none;" d="M840 94L841 95L840 94z"/>
<path style="fill:#c6c7c7; stroke:none;" d="M850 94L851 100L852 100L852 94L850 94z"/>
<path style="fill:#999a9a; stroke:none;" d="M853 94C853.326 98.2783 854.43 100.667 859 100L859 99L854 97L860 95L853 94z"/>
<path style="fill:#c6c7c7; stroke:none;" d="M858 94L858 96L860 94L858 94z"/>
<path style="fill:#eff2c4; stroke:none;" d="M867 94L868 95L867 94z"/>
<path style="fill:#c6c7c7; stroke:none;" d="M892 94L892 100L893 100L892 94z"/>
<path style="fill:#999a9a; stroke:none;" d="M900.333 94.6667L900.667 95.3333L900.333 94.6667z"/>
<path style="fill:#c6c7c7; stroke:none;" d="M905.333 94.6667L905.667 95.3333L905.333 94.6667z"/>
<path style="fill:#eff2c4; stroke:none;" d="M52 95L54 97L52 95z"/>
<path style="fill:#c6c7c7; stroke:none;" d="M53 95L54 96L53 95z"/>
<path style="fill:#eff2c4; stroke:none;" d="M58 95L58 98L59 98L58 95z"/>
<path style="fill:#c6c7c7; stroke:none;" d="M63 95L63 99L65 99L65 95L63 95M66.6667 95.3333L67.3333 95.6667L66.6667 95.3333M70.6667 95.3333L71.3333 95.6667L70.6667 95.3333M87 95L86 97L88 97L87 95M484 95L485 96L484 95z"/>
<path style="fill:#999a9a; stroke:none;" d="M485 95L485 96L488 96L488 101L489 101L489 95L485 95z"/>
<path style="fill:#eff2c4; stroke:none;" d="M493 95L494 96L493 95z"/>
<path style="fill:#c6c7c7; stroke:none;" d="M494 95L496 97L495 101L496 101L497 101L494 95M507 95L507 100L508 100L507 95M512 95L513 96L512 95z"/>
<path style="fill:#eff2c4; stroke:none;" d="M526 95L527 96L526 95M532 95L533 96L532 95M534.333 95.6667L534.667 96.3333L534.333 95.6667M551 95L552 96L551 95z"/>
<path style="fill:#c6c7c7; stroke:none;" d="M568 95L568 100L569 100L568 95z"/>
<path style="fill:#eff2c4; stroke:none;" d="M575 95L576 96L575 95M577.333 95.6667L577.667 96.3333L577.333 95.6667z"/>
<path style="fill:#c6c7c7; stroke:none;" d="M588 95L589 96L588 95z"/>
<path style="fill:#999a9a; stroke:none;" d="M589 95L589 96L592 96L592 101L593 101L593 95L589 95M595 95L596 100L597 100L596 97L603 95L595 95z"/>
<path style="fill:#ffffff; stroke:none;" d="M603 95L597 97L609 99L603 95z"/>
<path style="fill:#c6c7c7; stroke:none;" d="M606 95L607 96L606 95z"/>
<path style="fill:#eff2c4; stroke:none;" d="M607 95L608 96L607 95M630 95L631 96L630 95M632 95L633 96L632 95z"/>
<path style="fill:#c6c7c7; stroke:none;" d="M648 95L648 100L649 100L648 95z"/>
<path style="fill:#999a9a; stroke:none;" d="M650 95L651 100L652 100L651 97L658 95L650 95z"/>
<path style="fill:#c6c7c7; stroke:none;" d="M670 95L671 96L670 95z"/>
<path style="fill:#eff2c4; stroke:none;" d="M671 95L672 96L671 95z"/>
<path style="fill:#999a9a; stroke:none;" d="M683 95L683 98L684 98L683 95z"/>
<path style="fill:#eff2c4; stroke:none;" d="M693 95L694 96L693 95M716 95L717 96L716 95M718.333 95.6667L718.667 96.3333L718.333 95.6667M743 95L744 96L743 95M745 95L746 96L745 95z"/>
<path style="fill:#c6c7c7; stroke:none;" d="M760 95L760 100L761 100L760 95z"/>
<path style="fill:#eff2c4; stroke:none;" d="M761 95L761 96L764 96L761 95z"/>
<path style="fill:#c6c7c7; stroke:none;" d="M781 95L781 100L782 100L781 95z"/>
<path style="fill:#eff2c4; stroke:none;" d="M785 95L786 96L785 95z"/>
<path style="fill:#c6c7c7; stroke:none;" d="M786 95L788 97L787 101L788 101L789 101L786 95M799 95L799 100L800 100L799 95M803 95L803 100L804 100L803 95M835 95L836 96L835 95M836 97L839 95L836 97z"/>
<path style="fill:#999a9a; stroke:none;" d="M851 95L851 98L852 98L851 95z"/>
<path style="fill:#eff2c4; stroke:none;" d="M852 95L853 96L852 95z"/>
<path style="fill:#c6c7c7; stroke:none;" d="M863 95L863 100L864 100L863 95z"/>
<path style="fill:#eff2c4; stroke:none;" d="M869 95L870 96L869 95z"/>
<path style="fill:#c6c7c7; stroke:none;" d="M870 95L872 97L871 101L872 101L873 101L870 95z"/>
<path style="fill:#eff2c4; stroke:none;" d="M48 97L48 98L51 98L48 97z"/>
<path style="fill:#c6c7c7; stroke:none;" d="M50 96L51 97L50 96z"/>
<path style="fill:#999a9a; stroke:none;" d="M51 96L52 97L51 96z"/>
<path style="fill:#c6c7c7; stroke:none;" d="M52 96L53 97L52 96z"/>
<path style="fill:#999a9a; stroke:none;" d="M57.3333 96.6667L57.6667 97.3333L57.3333 96.6667M67 96L68 97L67 96M70.3333 96.6667L70.6667 97.3333L70.3333 96.6667z"/>
<path style="fill:#eff2c4; stroke:none;" d="M71 96L72 97L71 96z"/>
<path style="fill:#c6c7c7; stroke:none;" d="M83 96L82 98L83 96z"/>
<path style="fill:#999a9a; stroke:none;" d="M83 101L84 101L83 98L86 97C83.1802 96.9124 82.9249 98.4091 83 101z"/>
<path style="fill:#eff2c4; stroke:none;" d="M479 96L480 97L479 96M481 96L482 97L481 96M485.667 96.3333L486.333 96.6667L485.667 96.3333z"/>
<path style="fill:#c6c7c7; stroke:none;" d="M487 96L487 99L488 99L487 96z"/>
<path style="fill:#eff2c4; stroke:none;" d="M491 96L492 97L491 96z"/>
<path style="fill:#999a9a; stroke:none;" d="M492 96C491.506 99.1372 491.964 99.9996 495 101L495 100L492 100L494 97L492 96z"/>
<path style="fill:#c6c7c7; stroke:none;" d="M511 96L512 97L511 96M513 96L514 97L513 96M526 96L527 97L526 96M551 96L552 97L551 96z"/>
<path style="fill:#eff2c4; stroke:none;" d="M583 96L584 97L583 96M585 96L586 97L585 96M589.667 96.3333L590.333 96.6667L589.667 96.3333z"/>
<path style="fill:#c6c7c7; stroke:none;" d="M591 96L591 99L592 99L591 96M605 96L606 97L605 96z"/>
<path style="fill:#eff2c4; stroke:none;" d="M609 96L610 97L609 96z"/>
<path style="fill:#c6c7c7; stroke:none;" d="M630 96L631 97L630 96M669 96L670 97L669 96z"/>
<path style="fill:#eff2c4; stroke:none;" d="M673 96L674 97L673 96z"/>
<path style="fill:#c6c7c7; stroke:none;" d="M693 96L694 97L693 96M704 96L705 97L704 96M707.333 96.6667L707.667 97.3333L707.333 96.6667z"/>
<path style="fill:#ffffff; stroke:none;" d="M709 96L705 98L705 99L711 100L709 96z"/>
<path style="fill:#c6c7c7; stroke:none;" d="M710 96L711 97L710 96M743 96L744 97L743 96z"/>
<path style="fill:#eff2c4; stroke:none;" d="M783 96L784 97L783 96z"/>
<path style="fill:#999a9a; stroke:none;" d="M784.667 96.3333L785.333 96.6667L784.667 96.3333z"/>
<path style="fill:#c6c7c7; stroke:none;" d="M828 96L829 97L828 96z"/>
<path style="fill:#eff2c4; stroke:none;" d="M829 96L830 97L829 96M831 96L832 97L831 96z"/>
<path style="fill:#c6c7c7; stroke:none;" d="M833 96L834 97L833 96z"/>
<path style="fill:#999a9a; stroke:none;" d="M838 96L838 97L841 98L841 99L837 100L837 101L842 97L838 96z"/>
<path style="fill:#c6c7c7; stroke:none;" d="M840 96L841 97L840 96M852 96L853 97L852 96z"/>
<path style="fill:#eff2c4; stroke:none;" d="M867 96L868 97L867 96z"/>
<path style="fill:#999a9a; stroke:none;" d="M868 96C867.506 99.1372 867.964 99.9996 871 101L871 100L868 100L870 97L868 96z"/>
<path style="fill:#eff2c4; stroke:none;" d="M902 96L903 97L902 96M904 96L905 97L904 96z"/>
<path style="fill:#c6c7c7; stroke:none;" d="M906 96L907 97L906 96z"/>
<path style="fill:#999a9a; stroke:none;" d="M49 97L50 98L49 97z"/>
<path style="fill:#ffffff; stroke:none;" d="M50 100L54 97L50 100z"/>
<path style="fill:#c6c7c7; stroke:none;" d="M67 97L71 99L71 98L67 97z"/>
<path style="fill:#eff2c4; stroke:none;" d="M69 97L70 98L69 97M84 97L83 100L84 100L84 97z"/>
<path style="fill:#ffffff; stroke:none;" d="M85 97L84 98L84 99L84 100L87 97L85 97z"/>
<path style="fill:#eff2c4; stroke:none;" d="M87.3333 97.6667L87.6667 98.3333L87.3333 97.6667z"/>
<path style="fill:#c6c7c7; stroke:none;" d="M481 97L482 98L481 97M492 97L493 98L492 97z"/>
<path style="fill:#ffffff; stroke:none;" d="M492 99L496 97L492 99z"/>
<path style="fill:#eff2c4; stroke:none;" d="M510 97L511 98L510 97z"/>
<path style="fill:#c6c7c7; stroke:none;" d="M512 97L513 98L512 97z"/>
<path style="fill:#eff2c4; stroke:none;" d="M526 97L527 98L526 97M551 97L552 98L551 97M553 97L554 98L553 97z"/>
<path style="fill:#c6c7c7; stroke:none;" d="M571.333 97.6667L571.667 98.3333L571.333 97.6667M585 97L586 98L585 97M596.333 97.6667L596.667 98.3333L596.333 97.6667z"/>
<path style="fill:#eff2c4; stroke:none;" d="M607 97L608 98L607 97z"/>
<path style="fill:#c6c7c7; stroke:none;" d="M608 97L609 98L608 97z"/>
<path style="fill:#eff2c4; stroke:none;" d="M630 97L631 98L630 97z"/>
<path style="fill:#c6c7c7; stroke:none;" d="M651.333 97.6667L651.667 98.3333L651.333 97.6667z"/>
<path style="fill:#eff2c4; stroke:none;" d="M671 97L672 98L671 97z"/>
<path style="fill:#c6c7c7; stroke:none;" d="M672 97L673 98L672 97z"/>
<path style="fill:#eff2c4; stroke:none;" d="M693 97L694 98L693 97z"/>
<path style="fill:#c6c7c7; stroke:none;" d="M703 97L704 98L703 97z"/>
<path style="fill:#eff2c4; stroke:none;" d="M708 97L709 98L708 97M710 97L711 98L710 97M743 97L744 98L743 97z"/>
<path style="fill:#c6c7c7; stroke:none;" d="M783 97L784 100L785 100L785 97L783 97z"/>
<path style="fill:#ffffff; stroke:none;" d="M785 100L788 97L785 100z"/>
<path style="fill:#c6c7c7; stroke:none;" d="M827 97L828 98L827 97M832 97L833 98L832 97z"/>
<path style="fill:#eff2c4; stroke:none;" d="M839 97L840 98L839 97M852 97L853 98L852 97z"/>
<path style="fill:#c6c7c7; stroke:none;" d="M868 97L869 98L868 97z"/>
<path style="fill:#ffffff; stroke:none;" d="M868 99L872 97L868 99z"/>
<path style="fill:#eff2c4; stroke:none;" d="M900 97L901 98L900 97z"/>
<path style="fill:#c6c7c7; stroke:none;" d="M905 97L906 98L905 97M48 98L51 102L52 101L48 98M57.6667 98.3333L58.3333 98.6667L57.6667 98.3333M480 98L481 99L480 98z"/>
<path style="fill:#eff2c4; stroke:none;" d="M490.333 98.6667L490.667 99.3333L490.333 98.6667z"/>
<path style="fill:#c6c7c7; stroke:none;" d="M528 98L529 99L528 98M533 98L532 101L533 101L533 98M553 98L554 99L553 98M558 98L557 101L558 101L558 98z"/>
<path style="fill:#eff2c4; stroke:none;" d="M559 98L560 99L559 98z"/>
<path style="fill:#c6c7c7; stroke:none;" d="M576 98L575 101L576 101L576 98M584 98L585 99L584 98M602 98L601 101L602 98M604 98L605 99L604 98M610 98L611 99L610 98z"/>
<path style="fill:#eff2c4; stroke:none;" d="M617 98L618 99L617 98z"/>
<path style="fill:#c6c7c7; stroke:none;" d="M632 98L633 99L632 98M657 98L656 101L657 98M668 98L669 99L668 98M674 98L675 99L674 98M695 98L696 99L695 98M700.333 98.6667L700.667 99.3333L700.333 98.6667z"/>
<path style="fill:#eff2c4; stroke:none;" d="M702.333 98.6667L702.667 99.3333L702.333 98.6667M704 98L705 99L704 98z"/>
<path style="fill:#c6c7c7; stroke:none;" d="M712 98L713 99L712 98M717 98L716 101L717 101L717 98M745 98L746 99L745 98z"/>
<path style="fill:#999a9a; stroke:none;" d="M783 98L787 101L787 100L783 98z"/>
<path style="fill:#eff2c4; stroke:none;" d="M826.333 98.6667L826.667 99.3333L826.333 98.6667M828 98L829 99L828 98z"/>
<path style="fill:#c6c7c7; stroke:none;" d="M835 98L836 101L837 101L835 98M840 98L841 99L840 98M854 98L855 99L854 98M859.333 98.6667L859.667 99.3333L859.333 98.6667z"/>
<path style="fill:#eff2c4; stroke:none;" d="M866.333 98.6667L866.667 99.3333L866.333 98.6667M886 98L887 99L886 98z"/>
<path style="fill:#c6c7c7; stroke:none;" d="M901 98L902 99L901 98M53.3333 99.6667L53.6667 100.333L53.3333 99.6667z"/>
<path style="fill:#eff2c4; stroke:none;" d="M57 99L58 100L57 99z"/>
<path style="fill:#999a9a; stroke:none;" d="M58 99L60 101L58 99z"/>
<path style="fill:#eff2c4; stroke:none;" d="M62 99L63 100L62 99z"/>
<path style="fill:#999a9a; stroke:none;" d="M63 99L62 101L63 99M68 99L70 101L70 99L68 99z"/>
<path style="fill:#eff2c4; stroke:none;" d="M70 99L71 100L70 99z"/>
<path style="fill:#c6c7c7; stroke:none;" d="M87.3333 99.6667L87.6667 100.333L87.3333 99.6667M483 99L484 100L483 99z"/>
<path style="fill:#eff2c4; stroke:none;" d="M484.667 99.3333L485.333 99.6667L484.667 99.3333z"/>
<path style="fill:#c6c7c7; stroke:none;" d="M486 99L486 101L488 101L486 99M492 99L493 100L492 99z"/>
<path style="fill:#eff2c4; stroke:none;" d="M494 99L495 100L494 99z"/>
<path style="fill:#c6c7c7; stroke:none;" d="M509 99L510 100L509 99z"/>
<path style="fill:#eff2c4; stroke:none;" d="M511 99L512 100L511 99z"/>
<path style="fill:#c6c7c7; stroke:none;" d="M527 99L528 100L527 99M529 99L530 100L529 99z"/>
<path style="fill:#eff2c4; stroke:none;" d="M531 99L532 100L531 99z"/>
<path style="fill:#999a9a; stroke:none;" d="M533 99L534 100L533 99z"/>
<path style="fill:#c6c7c7; stroke:none;" d="M552 99L553 100L552 99M554 99L555 100L554 99z"/>
<path style="fill:#eff2c4; stroke:none;" d="M556 99L557 100L556 99z"/>
<path style="fill:#999a9a; stroke:none;" d="M558 99L559 100L558 99z"/>
<path style="fill:#c6c7c7; stroke:none;" d="M570 99L571 100L570 99M572 99L573 100L572 99z"/>
<path style="fill:#999a9a; stroke:none;" d="M576 99L577 100L576 99z"/>
<path style="fill:#c6c7c7; stroke:none;" d="M587 99L588 100L587 99z"/>
<path style="fill:#eff2c4; stroke:none;" d="M588.667 99.3333L589.333 99.6667L588.667 99.3333z"/>
<path style="fill:#c6c7c7; stroke:none;" d="M590 99L590 101L592 101L590 99z"/>
<path style="fill:#eff2c4; stroke:none;" d="M595 99L596 100L595 99z"/>
<path style="fill:#c6c7c7; stroke:none;" d="M597 99L596 101L598 101L597 99z"/>
<path style="fill:#eff2c4; stroke:none;" d="M598 99L599 100L598 99M600 99L601 100L600 99z"/>
<path style="fill:#999a9a; stroke:none;" d="M601 99L602 100L601 99z"/>
<path style="fill:#eff2c4; stroke:none;" d="M603 99L604 100L603 99z"/>
<path style="fill:#c6c7c7; stroke:none;" d="M605 99L606 100L605 99M608 99L609 100L608 99z"/>
<path style="fill:#eff2c4; stroke:none;" d="M614 99L615 100L614 99z"/>
<path style="fill:#c6c7c7; stroke:none;" d="M616.333 99.6667L616.667 100.333L616.333 99.6667M631 99L632 100L631 99M633 99L634 100L633 99z"/>
<path style="fill:#eff2c4; stroke:none;" d="M635 99L636 100L635 99M650 99L651 100L650 99z"/>
<path style="fill:#c6c7c7; stroke:none;" d="M652 99L651 101L653 101L652 99z"/>
<path style="fill:#eff2c4; stroke:none;" d="M653 99L654 100L653 99M655 99L656 100L655 99z"/>
<path style="fill:#999a9a; stroke:none;" d="M656 99L657 100L656 99z"/>
<path style="fill:#eff2c4; stroke:none;" d="M663 99L664 100L663 99M665 99L665 100L668 100L665 99z"/>
<path style="fill:#c6c7c7; stroke:none;" d="M669 99L670 100L669 99M672 99L673 100L672 99z"/>
<path style="fill:#eff2c4; stroke:none;" d="M680 99L681 100L680 99z"/>
<path style="fill:#999a9a; stroke:none;" d="M682 99L679 100L679 101L683 100L682 99z"/>
<path style="fill:#c6c7c7; stroke:none;" d="M694 99L695 100L694 99M696 99L697 100L696 99z"/>
<path style="fill:#eff2c4; stroke:none;" d="M698 99L699 100L698 99z"/>
<path style="fill:#c6c7c7; stroke:none;" d="M708 99L707 101L709 101L708 99z"/>
<path style="fill:#eff2c4; stroke:none;" d="M709 99L711 101L709 99z"/>
<path style="fill:#c6c7c7; stroke:none;" d="M711 99L712 100L711 99M713 99L714 100L713 99z"/>
<path style="fill:#eff2c4; stroke:none;" d="M715 99L716 100L715 99z"/>
<path style="fill:#999a9a; stroke:none;" d="M717 99L718 100L717 99z"/>
<path style="fill:#eff2c4; stroke:none;" d="M728 99L729 100L728 99z"/>
<path style="fill:#c6c7c7; stroke:none;" d="M729 99L729 101L731 101L729 99M744 99L745 100L744 99M746 99L747 100L746 99z"/>
<path style="fill:#eff2c4; stroke:none;" d="M748 99L749 100L748 99M761 99L761 100L767 100L761 99M786 99L787 100L786 99M811 99L812 100L811 99z"/>
<path style="fill:#c6c7c7; stroke:none;" d="M812 99L812 101L814 101L812 99M832 99L831 101L833 101L832 99z"/>
<path style="fill:#eff2c4; stroke:none;" d="M833 99L836 101L836 100L833 99z"/>
<path style="fill:#999a9a; stroke:none;" d="M835 99L836 100L835 99z"/>
<path style="fill:#eff2c4; stroke:none;" d="M837 99L838 100L837 99M839 99L840 100L839 99z"/>
<path style="fill:#c6c7c7; stroke:none;" d="M841 99L842 100L841 99M849 99L850 100L849 99M853 99L854 100L853 99M855 99L856 100L855 99z"/>
<path style="fill:#eff2c4; stroke:none;" d="M857 99L858 100L857 99z"/>
<path style="fill:#c6c7c7; stroke:none;" d="M868 99L869 100L868 99z"/>
<path style="fill:#eff2c4; stroke:none;" d="M870 99L871 100L870 99M876 99L877 100L876 99M878.667 99.3333L879.333 99.6667L878.667 99.3333M883 99L884 100L883 99z"/>
<path style="fill:#c6c7c7; stroke:none;" d="M885.333 99.6667L885.667 100.333L885.333 99.6667M906 99L907 100L906 99z"/>
<path style="fill:#eff2c4; stroke:none;" d="M907 99L908 100L907 99z"/>
<path style="fill:#999a9a; stroke:none;" d="M45 100L46 101L45 100z"/>
<path style="fill:#eff2c4; stroke:none;" d="M47 100L47 101L47 102L50 102L50 101L47 100z"/>
<path style="fill:#999a9a; stroke:none;" d="M49 100L50 101L49 100M52 100L53 101L52 100z"/>
<path style="fill:#eff2c4; stroke:none;" d="M55 100L56 101L55 100z"/>
<path style="fill:#c6c7c7; stroke:none;" d="M58 100L59 101L58 100M60 100L60 102L62 102L62 100L60 100M63 100L64 101L63 100M68 100L69 101L68 100z"/>
<path style="fill:#999a9a; stroke:none;" d="M79 100L80 101L79 100z"/>
<path style="fill:#eff2c4; stroke:none;" d="M81 100L82 101L81 100z"/>
<path style="fill:#c6c7c7; stroke:none;" d="M82 100L83 101L82 100M84 100L84 102L86 100L84 100z"/>
<path style="fill:#999a9a; stroke:none;" d="M86 100L87 101L86 100z"/>
<path style="fill:#c6c7c7; stroke:none;" d="M482 100L483 101L482 100M491 100L492 101L491 100z"/>
<path style="fill:#eff2c4; stroke:none;" d="M500 100L501 101L500 100M507 100L508 101L507 100M517 100L518 101L517 100M523 100L524 101L523 100z"/>
<path style="fill:#c6c7c7; stroke:none;" d="M528 100L529 101L528 100z"/>
<path style="fill:#eff2c4; stroke:none;" d="M533 100L534 101L533 100M537 100L538 101L537 100z"/>
<path style="fill:#c6c7c7; stroke:none;" d="M540 100L541 101L540 100z"/>
<path style="fill:#eff2c4; stroke:none;" d="M543.667 100.333L544.333 100.667L543.667 100.333M548 100L549 101L548 100z"/>
<path style="fill:#c6c7c7; stroke:none;" d="M553 100L554 101L553 100z"/>
<path style="fill:#eff2c4; stroke:none;" d="M562 100L563 101L562 100M568 100L569 101L568 100z"/>
<path style="fill:#c6c7c7; stroke:none;" d="M571 100L572 101L571 100z"/>
<path style="fill:#eff2c4; stroke:none;" d="M576 100L577 101L576 100z"/>
<path style="fill:#c6c7c7; stroke:none;" d="M586 100L587 101L586 100z"/>
<path style="fill:#999a9a; stroke:none;" d="M598 100L598 101L601 101L598 100z"/>
<path style="fill:#c6c7c7; stroke:none;" d="M604 100L605 101L604 100z"/>
<path style="fill:#eff2c4; stroke:none;" d="M609 100L610 101L609 100M612 100L613 101L612 100M617 100L618 101L617 100M619 100L620 101L619 100M623 100L624 101L623 100M627 100L628 101L627 100z"/>
<path style="fill:#c6c7c7; stroke:none;" d="M632 100L633 101L632 100M636 100L637 101L636 100z"/>
<path style="fill:#eff2c4; stroke:none;" d="M638 100L639 101L638 100M642 100L643 101L642 100M648 100L649 101L648 100z"/>
<path style="fill:#999a9a; stroke:none;" d="M653 100L653 101L656 101L653 100z"/>
<path style="fill:#eff2c4; stroke:none;" d="M659 100L660 101L659 100z"/>
<path style="fill:#c6c7c7; stroke:none;" d="M664 100L665 101L664 100M668 100L669 101L668 100z"/>
<path style="fill:#eff2c4; stroke:none;" d="M673 100L674 101L673 100M682 100L683 101L682 100M685 100L686 101L685 100M690 100L691 101L690 100z"/>
<path style="fill:#c6c7c7; stroke:none;" d="M695 100L696 101L695 100M699 100L700 101L699 100M702 100L703 101L702 100M704 100L703 104L704 104L704 100z"/>
<path style="fill:#eff2c4; stroke:none;" d="M705.667 100.333L706.333 100.667L705.667 100.333z"/>
<path style="fill:#999a9a; stroke:none;" d="M709 100L709 103L710 103L709 100z"/>
<path style="fill:#c6c7c7; stroke:none;" d="M712 100L713 101L712 100z"/>
<path style="fill:#eff2c4; stroke:none;" d="M717 100L718 101L717 100M725 100L726 101L725 100M734 100L735 101L734 100M740 100L741 101L740 100z"/>
<path style="fill:#c6c7c7; stroke:none;" d="M745 100L746 101L745 100M749 100L750 101L749 100z"/>
<path style="fill:#eff2c4; stroke:none;" d="M751 100L752 101L751 100M768 100L769 101L768 100M775 100L776 101L775 100M781 100L782 101L781 100M783 100L784 101L783 100M792 100L793 101L792 100M799 100L800 101L799 100M803 100L804 101L803 100M808 100L809 101L808 100M817 100L818 101L817 100M823 100L824 101L823 100z"/>
<path style="fill:#c6c7c7; stroke:none;" d="M826 100L827 101L826 100M828 100L827 104L828 104L828 100z"/>
<path style="fill:#eff2c4; stroke:none;" d="M829.667 100.333L830.333 100.667L829.667 100.333z"/>
<path style="fill:#999a9a; stroke:none;" d="M833 100L833 103L834 103L833 100z"/>
<path style="fill:#c6c7c7; stroke:none;" d="M840 100L841 101L840 100z"/>
<path style="fill:#eff2c4; stroke:none;" d="M845 100L846 101L845 100M850 100L851 101L850 100z"/>
<path style="fill:#c6c7c7; stroke:none;" d="M854 100L855 101L854 100M858 100L859 101L858 100z"/>
<path style="fill:#eff2c4; stroke:none;" d="M863 100L864 101L863 100z"/>
<path style="fill:#c6c7c7; stroke:none;" d="M867 100L868 101L867 100M877 100L878 101L877 100z"/>
<path style="fill:#eff2c4; stroke:none;" d="M881 100L882 101L881 100M886 100L887 101L886 100M888 100L889 101L888 100M892 100L893 101L892 100M896 100L897 101L896 100z"/>
<path style="fill:#c6c7c7; stroke:none;" d="M901 100L902 101L901 100z"/>
<path style="fill:#eff2c4; stroke:none;" d="M902 100L902 101L905 101L902 100z"/>
<path style="fill:#c6c7c7; stroke:none;" d="M905 100L907 102L905 100z"/>
<path style="fill:#eff2c4; stroke:none;" d="M45 101L46 102L45 101M51 101L52 102L51 101M54 101L55 102L54 101M59 101L60 102L59 101M69 101L70 102L69 101M74 101L75 102L74 101M79 101L80 102L79 101M83 101L84 102L83 101M85 101L86 102L85 101M88 101L89 102L88 101z"/>
<path style="fill:#ffffff; stroke:none;" d="M704 101L704 102L709 102L704 101z"/>
<path style="fill:#c6c7c7; stroke:none;" d="M710 101L711 102L710 101z"/>
<path style="fill:#ffffff; stroke:none;" d="M828 101L828 102L833 102L828 101z"/>
<path style="fill:#c6c7c7; stroke:none;" d="M834 101L835 102L834 101z"/>
<path style="fill:#eff2c4; stroke:none;" d="M899.333 101.667L899.667 102.333L899.333 101.667z"/>
<path style="fill:#ffffff; stroke:none;" d="M901 101L901 102L906 102L901 101z"/>
<path style="fill:#eff2c4; stroke:none;" d="M704 102L705 103L704 102M707 102L708 103L707 102z"/>
<path style="fill:#c6c7c7; stroke:none;" d="M708.333 102.667L708.667 103.333L708.333 102.667z"/>
<path style="fill:#eff2c4; stroke:none;" d="M828 102L829 103L828 102M831 102L832 103L831 102z"/>
<path style="fill:#c6c7c7; stroke:none;" d="M832.333 102.667L832.667 103.333L832.333 102.667M901.333 102.667L901.667 103.333L901.333 102.667z"/>
<path style="fill:#eff2c4; stroke:none;" d="M902 102L903 103L902 102M905 102L906 103L905 102z"/>
<path style="fill:#c6c7c7; stroke:none;" d="M907 102L908 103L907 102z"/>
<path style="fill:#eff2c4; stroke:none;" d="M677 103L678 104L677 103M702 103L703 104L702 103z"/>
<path style="fill:#999a9a; stroke:none;" d="M704 103L704 104L708 104L704 103z"/>
<path style="fill:#eff2c4; stroke:none;" d="M709 103L710 104L709 103M826 103L827 104L826 103z"/>
<path style="fill:#999a9a; stroke:none;" d="M828 103L828 104L832 104L828 103z"/>
<path style="fill:#eff2c4; stroke:none;" d="M833 103L834 104L833 103M900 103L901 104L900 103z"/>
<path style="fill:#c6c7c7; stroke:none;" d="M906 103L907 104L906 103M2 108L2 109L6 109L2 108M19.6667 108.333L20.3333 108.667L19.6667 108.333z"/>
<path style="fill:#eff2c4; stroke:none;" d="M27.3333 108.667L27.6667 109.333L27.3333 108.667z"/>
<path style="fill:#999a9a; stroke:none;" d="M28 108L28 110L30 110L30 108L28 108z"/>
<path style="fill:#eff2c4; stroke:none;" d="M54 108L54 121L55 121L54 108z"/>
<path style="fill:#c6c7c7; stroke:none;" d="M55 108L55 109L61 109L55 108z"/>
<path style="fill:#eff2c4; stroke:none;" d="M61 108L61 111L62 111L61 108M82 108L82 121L83 121L82 108z"/>
<path style="fill:#c6c7c7; stroke:none;" d="M83.6667 108.333L84.3333 108.667L83.6667 108.333z"/>
<path style="fill:#eff2c4; stroke:none;" d="M98 108L97 110L98 108z"/>
<path style="fill:#c6c7c7; stroke:none;" d="M99 108L99 109L104 110L104 111L101 110L101 111L105 111L99 108M126 108L126 121L127 121L127 109L128 109L128 115L133 113L133 112L133 111L129 113L128 108L126 108z"/>
<path style="fill:#eff2c4; stroke:none;" d="M128 108L129 109L128 108M705 108L705 111L706 111L705 108z"/>
<path style="fill:#c6c7c7; stroke:none;" d="M706.667 108.333L707.333 108.667L706.667 108.333z"/>
<path style="fill:#eff2c4; stroke:none;" d="M715 108L715 111L716 111L715 108z"/>
<path style="fill:#c6c7c7; stroke:none;" d="M716.667 108.333L717.333 108.667L716.667 108.333M779.667 108.333L780.333 108.667L779.667 108.333z"/>
<path style="fill:#eff2c4; stroke:none;" d="M781 108L781 111L782 111L781 108z"/>
<path style="fill:#c6c7c7; stroke:none;" d="M809.667 108.333L810.333 108.667L809.667 108.333z"/>
<path style="fill:#eff2c4; stroke:none;" d="M811 108L811 111L812 111L811 108z"/>
<path style="fill:#c6c7c7; stroke:none;" d="M883.667 108.333L884.333 108.667L883.667 108.333z"/>
<path style="fill:#eff2c4; stroke:none;" d="M885 108L885 111L886 111L885 108M895 108L895 111L896 111L895 108z"/>
<path style="fill:#c6c7c7; stroke:none;" d="M896.667 108.333L897.333 108.667L896.667 108.333z"/>
<path style="fill:#999a9a; stroke:none;" d="M1 109L6 119L1 117C1.88555 119.508 6.36512 122.46 7.07948 117.887C7.48317 115.303 4.09189 112.213 3 110L7 111L1 109z"/>
<path style="fill:#eff2c4; stroke:none;" d="M7 109L8 110L7 109M18 109L18 121L19 121L18 109z"/>
<path style="fill:#999a9a; stroke:none;" d="M19 109L19 121L24 121L25 112L19 109M55 109L55 121L61 121L61 119L57 119L60 115L60 114L57 114L57 110L61 110L55 109z"/>
<path style="fill:#eff2c4; stroke:none;" d="M77 109L77 112L78 112L77 109z"/>
<path style="fill:#c6c7c7; stroke:none;" d="M78.6667 109.333L79.3333 109.667L78.6667 109.333z"/>
<path style="fill:#999a9a; stroke:none;" d="M83 109L83 121L85 121L85 113L87 113L87 121L89 121L89 112L83 109M103 118L98 117L97 118C103.508 124.449 104.208 115.828 99 111L104 111C96.7838 105.584 98.8699 114.26 103 118z"/>
<path style="fill:#eff2c4; stroke:none;" d="M106 109L106 112L107 112L106 109z"/>
<path style="fill:#c6c7c7; stroke:none;" d="M107.667 109.333L108.333 109.667L107.667 109.333z"/>
<path style="fill:#999a9a; stroke:none;" d="M127 109L127 121L128 121L129 117L130 117L133 121L132 112L128 115L127 109z"/>
<path style="fill:#c6c7c7; stroke:none;" d="M674.333 109.667L674.667 110.333L674.333 109.667z"/>
<path style="fill:#999a9a; stroke:none;" d="M675 109L677 121L679 121L682 109L675 109z"/>
<path style="fill:#eff2c4; stroke:none;" d="M682.333 109.667L682.667 110.333L682.333 109.667M701 109L701 112L702 112L701 109z"/>
<path style="fill:#999a9a; stroke:none;" d="M702 109C701.66 113.045 700.434 118.414 704 121L704 109L702 109M706.667 109.333L707.333 109.667L706.667 109.333z"/>
<path style="fill:#eff2c4; stroke:none;" d="M710 112L711 112L713 110L710 112z"/>
<path style="fill:#999a9a; stroke:none;" d="M716.667 109.333L717.333 109.667L716.667 109.333M746 109L746 121L748 121L748 109L746 109z"/>
<path style="fill:#eff2c4; stroke:none;" d="M748 109L748 121L749 121L748 109z"/>
<path style="fill:#999a9a; stroke:none;" d="M751 109L751 121L753 121L753 109L751 109z"/>
<path style="fill:#eff2c4; stroke:none;" d="M753 109L753 121L754 121L753 109z"/>
<path style="fill:#c6c7c7; stroke:none;" d="M762 109L763 110L762 109z"/>
<path style="fill:#999a9a; stroke:none;" d="M768 117L763 119L763 111L768 113C766.891 109.857 762.682 107.772 761.318 112.229C759.577 117.915 765.455 124.215 768 117z"/>
<path style="fill:#c6c7c7; stroke:none;" d="M766 109L767 110L766 109z"/>
<path style="fill:#999a9a; stroke:none;" d="M770 109L770 121L772 121L772 109L770 109z"/>
<path style="fill:#eff2c4; stroke:none;" d="M772 109L772 112L773 112L772 109z"/>
<path style="fill:#999a9a; stroke:none;" d="M779.667 109.333L780.333 109.667L779.667 109.333M809.667 109.333L810.333 109.667L809.667 109.333M830 109L830 121L832 121L832 109L830 109z"/>
<path style="fill:#eff2c4; stroke:none;" d="M832 109L832 112L833 112L832 109z"/>
<path style="fill:#999a9a; stroke:none;" d="M852 109L852 121L854 121L854 112L855 112L857 121L859 121L861 112L862 112L862 121L864 121L864 109L858 116L852 109z"/>
<path style="fill:#c6c7c7; stroke:none;" d="M855 109L856 110L855 109M860 109L861 110L860 109z"/>
<path style="fill:#eff2c4; stroke:none;" d="M878 109L878 112L879 112L878 109z"/>
<path style="fill:#999a9a; stroke:none;" d="M879 109C878.66 113.045 877.433 118.414 881 121L881 109L879 109M883.667 109.333L884.333 109.667L883.667 109.333M896.667 109.333L897.333 109.667L896.667 109.333z"/>
<path style="fill:#c6c7c7; stroke:none;" d="M0 110L0 113L1 113L0 110M3.66667 110.333L4.33333 110.667L3.66667 110.333M7 110L5 111L5 112L7 110M57 110L57 111L61 111L57 110z"/>
<path style="fill:#999a9a; stroke:none;" d="M78 110C77.5366 114.153 77.2429 118.567 81 121L80 110L78 110z"/>
<path style="fill:#c6c7c7; stroke:none;" d="M97 110L98 111L97 110z"/>
<path style="fill:#eff2c4; stroke:none;" d="M100 110L101 111L100 110z"/>
<path style="fill:#999a9a; stroke:none;" d="M107 110C106.537 114.153 106.243 118.567 110 121L109 110L107 110z"/>
<path style="fill:#c6c7c7; stroke:none;" d="M706.667 110.333L707.333 110.667L706.667 110.333z"/>
<path style="fill:#999a9a; stroke:none;" d="M711 110C710.335 114.182 710.201 118.547 714 121L713 110L711 110z"/>
<path style="fill:#c6c7c7; stroke:none;" d="M716.667 110.333L717.333 110.667L716.667 110.333M779.667 110.333L780.333 110.667L779.667 110.333M809.667 110.333L810.333 110.667L809.667 110.333M883.667 110.333L884.333 110.667L883.667 110.333M896.667 110.333L897.333 110.667L896.667 110.333z"/>
<path style="fill:#eff2c4; stroke:none;" d="M11 111L12 112L11 111z"/>
<path style="fill:#c6c7c7; stroke:none;" d="M12 111L12 112L15 112L12 111z"/>
<path style="fill:#eff2c4; stroke:none;" d="M15 111L17 113L15 111z"/>
<path style="fill:#c6c7c7; stroke:none;" d="M22.6667 111.333L23.3333 111.667L22.6667 111.333z"/>
<path style="fill:#eff2c4; stroke:none;" d="M24 111L25 112L24 111z"/>
<path style="fill:#c6c7c7; stroke:none;" d="M28.6667 111.333L29.3333 111.667L28.6667 111.333z"/>
<path style="fill:#eff2c4; stroke:none;" d="M32 111L33 112L32 111z"/>
<path style="fill:#c6c7c7; stroke:none;" d="M33 111L32 121L33 121L33 111z"/>
<path style="fill:#eff2c4; stroke:none;" d="M34.6667 111.333L35.3333 111.667L34.6667 111.333z"/>
<path style="fill:#c6c7c7; stroke:none;" d="M36.6667 111.333L37.3333 111.667L36.6667 111.333z"/>
<path style="fill:#eff2c4; stroke:none;" d="M38 111L39 112L38 111M42 111L43 112L42 111z"/>
<path style="fill:#c6c7c7; stroke:none;" d="M43 111L43 112L46 112L43 111z"/>
<path style="fill:#eff2c4; stroke:none;" d="M46 111L48 113L46 111z"/>
<path style="fill:#c6c7c7; stroke:none;" d="M63 111L63 121L64 121L65 111L63 111z"/>
<path style="fill:#eff2c4; stroke:none;" d="M65.6667 111.333L66.3333 111.667L65.6667 111.333z"/>
<path style="fill:#c6c7c7; stroke:none;" d="M67 111L68 112L67 111z"/>
<path style="fill:#eff2c4; stroke:none;" d="M70 111L71 112L70 111z"/>
<path style="fill:#c6c7c7; stroke:none;" d="M71 111L71 112L74 112L71 111z"/>
<path style="fill:#eff2c4; stroke:none;" d="M74 111L76 113L74 111z"/>
<path style="fill:#c6c7c7; stroke:none;" d="M86 111L86 112L89 112L86 111M99 111L100 112L99 111z"/>
<path style="fill:#eff2c4; stroke:none;" d="M104 111L105 112L104 111z"/>
<path style="fill:#c6c7c7; stroke:none;" d="M113 111L113 112L117 112L113 111z"/>
<path style="fill:#eff2c4; stroke:none;" d="M120 111L121 112L120 111z"/>
<path style="fill:#c6c7c7; stroke:none;" d="M121 111L120 121L121 121L121 111z"/>
<path style="fill:#eff2c4; stroke:none;" d="M122.667 111.333L123.333 111.667L122.667 111.333z"/>
<path style="fill:#c6c7c7; stroke:none;" d="M124 111L125 112L124 111z"/>
<path style="fill:#eff2c4; stroke:none;" d="M130 111L131 112L130 111z"/>
<path style="fill:#c6c7c7; stroke:none;" d="M679 111L679 121L680 121L679 111z"/>
<path style="fill:#eff2c4; stroke:none;" d="M760 111L761 112L760 111z"/>
<path style="fill:#c6c7c7; stroke:none;" d="M763 111L764 112L763 111M765 111L766 112L765 111z"/>
<path style="fill:#eff2c4; stroke:none;" d="M768 111L769 112L768 111z"/>
<path style="fill:#c6c7c7; stroke:none;" d="M856.333 111.667L856.667 112.333L856.333 111.667M859.333 111.667L859.667 112.333L859.333 111.667M3 112L4 113L3 112M10 112L11 113L10 112z"/>
<path style="fill:#999a9a; stroke:none;" d="M10 113L10 114L15 113L11 121L16 121L16 112L10 113z"/>
<path style="fill:#eff2c4; stroke:none;" d="M25 112L26 113L25 112M27 112L27 121L28 121L27 112z"/>
<path style="fill:#999a9a; stroke:none;" d="M28 112L28 121L30 121L30 112L28 112M33 112L33 121L34 121L37 113L37 121L39 121L39 112L33 112z"/>
<path style="fill:#c6c7c7; stroke:none;" d="M41 112L42 113L41 112z"/>
<path style="fill:#999a9a; stroke:none;" d="M48 118L43 119L48 116C42.8479 103.191 38.1557 127.647 48 118M64 112L64 121L65 121L68 113L64 112z"/>
<path style="fill:#c6c7c7; stroke:none;" d="M69 112L70 113L69 112z"/>
<path style="fill:#999a9a; stroke:none;" d="M69 113L69 114L74 113L70 121L75 121L75 112L69 113z"/>
<path style="fill:#c6c7c7; stroke:none;" d="M81 112L82 113L81 112z"/>
<path style="fill:#eff2c4; stroke:none;" d="M89 112L89 121L90 121L89 112M100 112L101 113L100 112z"/>
<path style="fill:#c6c7c7; stroke:none;" d="M109 113L109 114L112 114L109 113z"/>
<path style="fill:#999a9a; stroke:none;" d="M112 114L116 113L112 121L118 121L118 112L112 114M121 112L121 121L122 121L125 113L121 112z"/>
<path style="fill:#eff2c4; stroke:none;" d="M682 112L682 121L683 121L682 112z"/>
<path style="fill:#999a9a; stroke:none;" d="M683 112L683 121L685 121L687 112L683 112z"/>
<path style="fill:#c6c7c7; stroke:none;" d="M685 112L686 113L685 112z"/>
<path style="fill:#eff2c4; stroke:none;" d="M687.333 112.667L687.667 113.333L687.333 112.667z"/>
<path style="fill:#c6c7c7; stroke:none;" d="M689 112L688 115L689 115L690 115L689 112z"/>
<path style="fill:#999a9a; stroke:none;" d="M689 113L689 114L692 113L690 120L692 117L692 116L688 117C689.228 120.712 691.384 120.683 695 121C694.945 116.314 694.575 112.186 689 113z"/>
<path style="fill:#c6c7c7; stroke:none;" d="M693 112L694 113L693 112z"/>
<path style="fill:#eff2c4; stroke:none;" d="M697 112L698 113L697 112z"/>
<path style="fill:#999a9a; stroke:none;" d="M698 112C696.91 115.731 696.519 118.743 700 121L700 112L698 112z"/>
<path style="fill:#c6c7c7; stroke:none;" d="M700 112L700 114L702 112L700 112z"/>
<path style="fill:#eff2c4; stroke:none;" d="M705 112L705 121L706 121L705 112z"/>
<path style="fill:#999a9a; stroke:none;" d="M706 112L706 121L708 121L708 112L706 112z"/>
<path style="fill:#c6c7c7; stroke:none;" d="M713 112L714 113L713 112z"/>
<path style="fill:#eff2c4; stroke:none;" d="M714 112L715 121L716 121L714 112z"/>
<path style="fill:#999a9a; stroke:none;" d="M716 112L716 121L718 121L718 112L716 112z"/>
<path style="fill:#c6c7c7; stroke:none;" d="M721 112L720 114L721 112z"/>
<path style="fill:#999a9a; stroke:none;" d="M722.299 113.176C718.641 114.957 720.514 122.185 724.701 119.863C728.059 118.001 726.229 111.262 722.299 113.176z"/>
<path style="fill:#c6c7c7; stroke:none;" d="M725 112L726 113L725 112z"/>
<path style="fill:#eff2c4; stroke:none;" d="M728 112L728 121L729 121L728 112z"/>
<path style="fill:#999a9a; stroke:none;" d="M729 112L729 121L731 121L732 113L733 113L733 121L735 121L734 112L729 112z"/>
<path style="fill:#c6c7c7; stroke:none;" d="M731 112L732 113L731 112M734 112L735 113L734 112M738 112L737 114L738 112z"/>
<path style="fill:#999a9a; stroke:none;" d="M744 118L740 120L739 117L744 117C743.318 113.077 738.073 110.513 737.466 116.04C736.945 120.785 741.856 120.985 744 118z"/>
<path style="fill:#c6c7c7; stroke:none;" d="M742 112L743 113L742 112M760 112L760 118L761 118L760 112M768 112L769 113L768 112M772 112L774 114L774 112L772 112z"/>
<path style="fill:#999a9a; stroke:none;" d="M774 112L775 121L777 121L774 112z"/>
<path style="fill:#c6c7c7; stroke:none;" d="M776 112L777 113L776 112z"/>
<path style="fill:#999a9a; stroke:none;" d="M779 112L779 121L781 121L781 112L779 112z"/>
<path style="fill:#eff2c4; stroke:none;" d="M781 112L781 121L782 121L781 112M783 112L783 121L784 121L783 112z"/>
<path style="fill:#999a9a; stroke:none;" d="M784 112L784 121L786 121L787 113L788 113L788 121L790 121L789 112L784 112z"/>
<path style="fill:#c6c7c7; stroke:none;" d="M786 112L787 113L786 112M789 112L790 113L789 112M793 112L792 114L793 112z"/>
<path style="fill:#999a9a; stroke:none;" d="M799 118L795 120L794 117L799 117C798.318 113.077 793.073 110.513 792.466 116.04C791.945 120.785 796.856 120.985 799 118z"/>
<path style="fill:#c6c7c7; stroke:none;" d="M797 112L798 113L797 112z"/>
<path style="fill:#eff2c4; stroke:none;" d="M801 112L802 113L801 112z"/>
<path style="fill:#c6c7c7; stroke:none;" d="M802 112L801 114L802 112z"/>
<path style="fill:#999a9a; stroke:none;" d="M801 114L801 115C803.308 117.127 804.209 117.64 802 120L807 119L807 118L803 114L806 114L801 114z"/>
<path style="fill:#c6c7c7; stroke:none;" d="M805 112L806 113L805 112z"/>
<path style="fill:#999a9a; stroke:none;" d="M809 112L809 121L811 121L811 112L809 112z"/>
<path style="fill:#eff2c4; stroke:none;" d="M811 112L811 121L812 121L811 112z"/>
<path style="fill:#c6c7c7; stroke:none;" d="M814 112L813 114L814 112z"/>
<path style="fill:#999a9a; stroke:none;" d="M813 114L813 115L818 119L814 119L814 120L820 119L820 118L815 114L819 114L813 114z"/>
<path style="fill:#c6c7c7; stroke:none;" d="M818 112L819 113L818 112M822 112L821 114L822 112z"/>
<path style="fill:#999a9a; stroke:none;" d="M828 118L824 120L824 113L828 115C820.106 107.264 820.106 125.736 828 118z"/>
<path style="fill:#c6c7c7; stroke:none;" d="M826 112L827 113L826 112M832 112L834 114L834 112L832 112z"/>
<path style="fill:#999a9a; stroke:none;" d="M834 112L835 121L837 121L834 112z"/>
<path style="fill:#c6c7c7; stroke:none;" d="M836 112L837 113L836 112M840 112L841 113L840 112z"/>
<path style="fill:#999a9a; stroke:none;" d="M845 118L841 119L845 117C842.379 101.945 836.999 128.85 845 118z"/>
<path style="fill:#c6c7c7; stroke:none;" d="M843 112L844 113L843 112M854.333 112.667L854.667 113.333L854.333 112.667M861.333 112.667L861.667 113.333L861.333 112.667M867 112L868 113L867 112z"/>
<path style="fill:#999a9a; stroke:none;" d="M872 118L868 119L872 117C869.379 101.945 863.999 128.85 872 118z"/>
<path style="fill:#c6c7c7; stroke:none;" d="M870 112L871 113L870 112z"/>
<path style="fill:#eff2c4; stroke:none;" d="M874 112L875 113L874 112z"/>
<path style="fill:#c6c7c7; stroke:none;" d="M875 112L874 114L875 112z"/>
<path style="fill:#999a9a; stroke:none;" d="M876 112C874.042 115.747 873.92 117.97 877 121L876 112z"/>
<path style="fill:#c6c7c7; stroke:none;" d="M876 115L879 112L876 115z"/>
<path style="fill:#999a9a; stroke:none;" d="M883 112L883 121L885 121L885 112L883 112z"/>
<path style="fill:#eff2c4; stroke:none;" d="M885 112L885 121L886 121L885 112M887.333 112.667L887.667 113.333L887.333 112.667z"/>
<path style="fill:#999a9a; stroke:none;" d="M888 112L888 113L891 113L888 121L894 121L894 120L890 120L894 112L888 112z"/>
<path style="fill:#eff2c4; stroke:none;" d="M895 112L895 121L896 121L895 112z"/>
<path style="fill:#999a9a; stroke:none;" d="M896 112L896 121L898 121L898 112L896 112M900 112L900 121L902 121L903 113L904 113L905 121L907 121C906.978 114.839 906.368 112.558 900 112z"/>
<path style="fill:#c6c7c7; stroke:none;" d="M902 112L903 113L902 112M906 112L907 113L906 112z"/>
<path style="fill:#ffffff; stroke:none;" d="M0 113L0 117L5 119L0 113z"/>
<path style="fill:#c6c7c7; stroke:none;" d="M4 113L5 114L4 113z"/>
<path style="fill:#eff2c4; stroke:none;" d="M5 113L6 114L5 113z"/>
<path style="fill:#c6c7c7; stroke:none;" d="M12 113L13 114L12 113z"/>
<path style="fill:#eff2c4; stroke:none;" d="M13 113L14 114L13 113z"/>
<path style="fill:#c6c7c7; stroke:none;" d="M14.3333 113.667L14.6667 114.333L14.3333 113.667M16 113L16 121L17 121L16 113z"/>
<path style="fill:#eff2c4; stroke:none;" d="M21 113L22 114L21 113z"/>
<path style="fill:#ffffff; stroke:none;" d="M22 113L21 119L23 119L22 113z"/>
<path style="fill:#c6c7c7; stroke:none;" d="M25 113L25 120L26 120L25 113z"/>
<path style="fill:#eff2c4; stroke:none;" d="M35 113L36 121L37 121L35 113z"/>
<path style="fill:#c6c7c7; stroke:none;" d="M43 113L44 114L43 113z"/>
<path style="fill:#eff2c4; stroke:none;" d="M44 113L43 115L44 113z"/>
<path style="fill:#c6c7c7; stroke:none;" d="M45.3333 113.667L45.6667 114.333L45.3333 113.667M47 113L48 114L47 113M57 113L57 114L60 114L57 113z"/>
<path style="fill:#eff2c4; stroke:none;" d="M60 113L60 116L61 116L60 113z"/>
<path style="fill:#c6c7c7; stroke:none;" d="M66.6667 113.333L67.3333 113.667L66.6667 113.333M71 113L72 114L71 113z"/>
<path style="fill:#eff2c4; stroke:none;" d="M72 113L73 114L72 113z"/>
<path style="fill:#c6c7c7; stroke:none;" d="M73.3333 113.667L73.6667 114.333L73.3333 113.667M75 113L75 121L76 121L75 113M77 113L78 114L77 113M80 113L81 114L80 113M85 113L86 114L85 113M97 113L98 114L97 113M101 113L102 114L101 113M106 113L107 114L106 113z"/>
<path style="fill:#eff2c4; stroke:none;" d="M110 113L111 114L110 113M112 115L113 116L116 114L112 115M118 113L118 121L119 121L118 113z"/>
<path style="fill:#c6c7c7; stroke:none;" d="M123.667 113.333L124.333 113.667L123.667 113.333M691 113L692 117L693 117L691 113M694 113L695 114L694 113M723 113L725 115L723 113M726 113L727 114L726 113M732 113L733 114L732 113z"/>
<path style="fill:#eff2c4; stroke:none;" d="M735 113L735 121L736 121L735 113z"/>
<path style="fill:#c6c7c7; stroke:none;" d="M740 113L742 116L742 115L740 113M787 113L788 114L787 113z"/>
<path style="fill:#eff2c4; stroke:none;" d="M790 113L790 121L791 121L790 113z"/>
<path style="fill:#c6c7c7; stroke:none;" d="M795 113L797 116L797 115L795 113M806 113L805 115L807 115L806 113M816 113L817 114L816 113M819 113L818 115L820 115L819 113M824 113L825 114L824 113M827 113L828 114L827 113M888 113L888 114L891 114L888 113M903 113L904 114L903 113z"/>
<path style="fill:#eff2c4; stroke:none;" d="M1 114L2 115L1 114z"/>
<path style="fill:#c6c7c7; stroke:none;" d="M2 114L3 115L2 114M6 114L7 115L6 114z"/>
<path style="fill:#eff2c4; stroke:none;" d="M10.6667 114.333L11.3333 114.667L10.6667 114.333z"/>
<path style="fill:#ffffff; stroke:none;" d="M12.6667 114.333L13.3333 114.667L12.6667 114.333z"/>
<path style="fill:#c6c7c7; stroke:none;" d="M23 114L23 119L24 119L23 114M34 114L34 121L35 121L34 114z"/>
<path style="fill:#ffffff; stroke:none;" d="M44 114L45 115L44 114z"/>
<path style="fill:#c6c7c7; stroke:none;" d="M65 114L65 121L66 121L65 114z"/>
<path style="fill:#eff2c4; stroke:none;" d="M69.6667 114.333L70.3333 114.667L69.6667 114.333z"/>
<path style="fill:#ffffff; stroke:none;" d="M71.6667 114.333L72.3333 114.667L71.6667 114.333z"/>
<path style="fill:#eff2c4; stroke:none;" d="M77 114L77 120L78 120L77 114z"/>
<path style="fill:#ffffff; stroke:none;" d="M80 114L80 119L82 119L82 114L80 114z"/>
<path style="fill:#eff2c4; stroke:none;" d="M98 114L99 115L98 114M103 114L104 115L103 114M106 114L106 120L107 120L106 114z"/>
<path style="fill:#ffffff; stroke:none;" d="M109 114L109 119L113 115L109 114M114.667 114.333L115.333 114.667L114.667 114.333z"/>
<path style="fill:#c6c7c7; stroke:none;" d="M122 114L122 121L123 121L122 114M131.333 114.667L131.667 115.333L131.333 114.667z"/>
<path style="fill:#eff2c4; stroke:none;" d="M690 114L691 115L690 114z"/>
<path style="fill:#ffffff; stroke:none;" d="M691 114L692 115L691 114z"/>
<path style="fill:#eff2c4; stroke:none;" d="M696 114L696 119L697 119L696 114z"/>
<path style="fill:#ffffff; stroke:none;" d="M699 114L699 119L701 119L701 114L699 114z"/>
<path style="fill:#eff2c4; stroke:none;" d="M701 114L701 119L702 119L701 114M710 114L710 120L711 120L710 114z"/>
<path style="fill:#ffffff; stroke:none;" d="M713 114L713 119L715 119L715 114L713 114z"/>
<path style="fill:#eff2c4; stroke:none;" d="M719 114L719 119L720 119L719 114z"/>
<path style="fill:#ffffff; stroke:none;" d="M722 114L722 119L724 119L724 114L722 114M740.667 114.333L741.333 114.667L740.667 114.333z"/>
<path style="fill:#eff2c4; stroke:none;" d="M744 114L744 117L745 117L744 114z"/>
<path style="fill:#c6c7c7; stroke:none;" d="M772 114L773 115L772 114z"/>
<path style="fill:#eff2c4; stroke:none;" d="M774 114L774 121L775 121L774 114z"/>
<path style="fill:#ffffff; stroke:none;" d="M795.667 114.333L796.333 114.667L795.667 114.333z"/>
<path style="fill:#eff2c4; stroke:none;" d="M799 114L799 117L800 117L799 114z"/>
<path style="fill:#ffffff; stroke:none;" d="M803.667 114.333L804.333 114.667L803.667 114.333M815.667 114.333L816.333 114.667L815.667 114.333z"/>
<path style="fill:#eff2c4; stroke:none;" d="M817 114L818 115L817 114z"/>
<path style="fill:#c6c7c7; stroke:none;" d="M823 114L824 115L823 114M825 114L826 115L825 114M832 114L833 115L832 114z"/>
<path style="fill:#eff2c4; stroke:none;" d="M834 114L834 121L835 121L834 114M838 114L838 119L839 119L838 114z"/>
<path style="fill:#ffffff; stroke:none;" d="M841.667 114.333L842.333 114.667L841.667 114.333z"/>
<path style="fill:#eff2c4; stroke:none;" d="M845 114L845 117L846 117L845 114M857.667 114.333L858.333 114.667L857.667 114.333M865 114L865 119L866 119L865 114z"/>
<path style="fill:#ffffff; stroke:none;" d="M868.667 114.333L869.333 114.667L868.667 114.333z"/>
<path style="fill:#eff2c4; stroke:none;" d="M872 114L872 117L873 117L872 114z"/>
<path style="fill:#ffffff; stroke:none;" d="M877 114L877 119L878 119L877 114z"/>
<path style="fill:#eff2c4; stroke:none;" d="M878 114L878 119L879 119L878 114M890 114L891 115L890 114z"/>
<path style="fill:#c6c7c7; stroke:none;" d="M893 114L894 115L893 114M902 114L903 115L902 114z"/>
<path style="fill:#eff2c4; stroke:none;" d="M904 114L904 121L905 121L904 114z"/>
<path style="fill:#c6c7c7; stroke:none;" d="M3 115L4 116L3 115M7 115L8 116L7 115M12 115L13 116L12 115M57 115L57 116L60 116L57 115M71 115L72 116L71 115M91 115L92 116L91 115z"/>
<path style="fill:#999a9a; stroke:none;" d="M91 116L91 117L95 115L91 116z"/>
<path style="fill:#eff2c4; stroke:none;" d="M95 115L96 116L95 115z"/>
<path style="fill:#c6c7c7; stroke:none;" d="M100 115L101 116L100 115z"/>
<path style="fill:#eff2c4; stroke:none;" d="M104 115L105 116L104 115z"/>
<path style="fill:#c6c7c7; stroke:none;" d="M114 115L115 116L114 115z"/>
<path style="fill:#eff2c4; stroke:none;" d="M724 115L724 118L725 118L724 115M772 115L772 121L773 121L772 115z"/>
<path style="fill:#c6c7c7; stroke:none;" d="M801 115L802 116L801 115z"/>
<path style="fill:#eff2c4; stroke:none;" d="M804 115L805 116L804 115z"/>
<path style="fill:#c6c7c7; stroke:none;" d="M813 115L814 116L813 115M816 115L817 116L816 115z"/>
<path style="fill:#eff2c4; stroke:none;" d="M823 115L823 118L824 118L823 115M826.667 115.333L827.333 115.667L826.667 115.333M832 115L832 121L833 121L832 115z"/>
<path style="fill:#c6c7c7; stroke:none;" d="M841.667 115.333L842.333 115.667L841.667 115.333M855.333 115.667L855.667 116.333L855.333 115.667M857.667 115.333L858.333 115.667L857.667 115.333M860.333 115.667L860.667 116.333L860.333 115.667M868.667 115.333L869.333 115.667L868.667 115.333z"/>
<path style="fill:#eff2c4; stroke:none;" d="M876 115L876 118L877 118L876 115z"/>
<path style="fill:#c6c7c7; stroke:none;" d="M892 115L893 116L892 115z"/>
<path style="fill:#eff2c4; stroke:none;" d="M902 115L902 121L903 121L902 115z"/>
<path style="fill:#c6c7c7; stroke:none;" d="M5 116L5 119L6 119L5 116z"/>
<path style="fill:#eff2c4; stroke:none;" d="M10 116L11 117L10 116z"/>
<path style="fill:#c6c7c7; stroke:none;" d="M12 117L12 118L14 119L15 119L14 116L12 117M43 116L43 117L48 117L43 116z"/>
<path style="fill:#eff2c4; stroke:none;" d="M69 116L70 117L69 116z"/>
<path style="fill:#c6c7c7; stroke:none;" d="M71 117L71 118L73 119L74 119L73 116L71 117M95 116L96 117L95 116z"/>
<path style="fill:#eff2c4; stroke:none;" d="M101 116L102 117L101 116z"/>
<path style="fill:#c6c7c7; stroke:none;" d="M104 116L105 117L104 116M112 116L113 117L112 116M115 116L116 117L115 116M689 116L690 117L689 116M766 116L766 117L769 118L766 116z"/>
<path style="fill:#eff2c4; stroke:none;" d="M768 116L769 117L768 116z"/>
<path style="fill:#c6c7c7; stroke:none;" d="M802 116L803 117L802 116M805 116L807 118L805 116z"/>
<path style="fill:#eff2c4; stroke:none;" d="M806 116L807 117L806 116z"/>
<path style="fill:#c6c7c7; stroke:none;" d="M814 116L815 117L814 116M818 116L819 117L818 116M889 116L890 117L889 116M0.333333 117.667L0.666667 118.333L0.333333 117.667M2 117L3 118L2 117z"/>
<path style="fill:#ffffff; stroke:none;" d="M13 117L12 119L14 119L13 117z"/>
<path style="fill:#eff2c4; stroke:none;" d="M43.3333 117.667L43.6667 118.333L43.3333 117.667z"/>
<path style="fill:#ffffff; stroke:none;" d="M72 117L71 119L73 119L72 117z"/>
<path style="fill:#eff2c4; stroke:none;" d="M96 117L97 118L96 117z"/>
<path style="fill:#c6c7c7; stroke:none;" d="M97 117L98 118L97 117z"/>
<path style="fill:#eff2c4; stroke:none;" d="M99 117L100 118L99 117z"/>
<path style="fill:#c6c7c7; stroke:none;" d="M102 117L103 118L102 117M111 117L110 121L111 121L111 117z"/>
<path style="fill:#ffffff; stroke:none;" d="M114 117L114 119L116 119L116 117L114 117z"/>
<path style="fill:#eff2c4; stroke:none;" d="M132 117L133 118L132 117z"/>
<path style="fill:#c6c7c7; stroke:none;" d="M690 117L691 118L690 117z"/>
<path style="fill:#ffffff; stroke:none;" d="M691 117L690 119L692 119L691 117z"/>
<path style="fill:#eff2c4; stroke:none;" d="M692 117L693 118L692 117M739 117L740 118L739 117M794 117L795 118L794 117M803 117L804 118L803 117z"/>
<path style="fill:#c6c7c7; stroke:none;" d="M804 117L805 118L804 117M816 117L817 118L816 117M819 117L820 118L819 117z"/>
<path style="fill:#eff2c4; stroke:none;" d="M826.667 117.333L827.333 117.667L826.667 117.333M855 117L856 118L855 117M860 117L861 118L860 117z"/>
<path style="fill:#c6c7c7; stroke:none;" d="M888 117L889 118L888 117z"/>
<path style="fill:#eff2c4; stroke:none;" d="M891 117L892 118L891 117M3 118L4 119L3 118M9.33333 118.667L9.66667 119.333L9.33333 118.667z"/>
<path style="fill:#c6c7c7; stroke:none;" d="M45 118L46 119L45 118M57 118L58 119L57 118z"/>
<path style="fill:#eff2c4; stroke:none;" d="M58 118L58 119L62 119L58 118M68.3333 118.667L68.6667 119.333L68.3333 118.667M101 118L102 119L101 118z"/>
<path style="fill:#c6c7c7; stroke:none;" d="M104 118L105 119L104 118M113 118L114 119L113 118M128 118L128 121L129 121L128 118M130 118L131 119L130 118M132 118L133 119L132 118z"/>
<path style="fill:#eff2c4; stroke:none;" d="M687.333 118.667L687.667 119.333L687.333 118.667z"/>
<path style="fill:#c6c7c7; stroke:none;" d="M692 118L693 119L692 118M724 118L725 119L724 118M739 118L740 119L739 118z"/>
<path style="fill:#eff2c4; stroke:none;" d="M744 118L745 119L744 118M760 118L761 119L760 118z"/>
<path style="fill:#c6c7c7; stroke:none;" d="M763 118L764 119L763 118M765 118L766 119L765 118z"/>
<path style="fill:#eff2c4; stroke:none;" d="M768 118L769 119L768 118z"/>
<path style="fill:#c6c7c7; stroke:none;" d="M794 118L795 119L794 118z"/>
<path style="fill:#eff2c4; stroke:none;" d="M799.667 118.333L800.333 118.667L799.667 118.333z"/>
<path style="fill:#c6c7c7; stroke:none;" d="M801 118L801 120L803 118L801 118z"/>
<path style="fill:#ffffff; stroke:none;" d="M803.667 118.333L804.333 118.667L803.667 118.333z"/>
<path style="fill:#c6c7c7; stroke:none;" d="M813 118L813 120L815 118L813 118M823 118L824 119L823 118M825 118L826 119L825 118z"/>
<path style="fill:#eff2c4; stroke:none;" d="M845 118L846 119L845 118M872 118L873 119L872 118z"/>
<path style="fill:#c6c7c7; stroke:none;" d="M876 118L877 119L876 118z"/>
<path style="fill:#eff2c4; stroke:none;" d="M887 118L888 119L887 118z"/>
<path style="fill:#c6c7c7; stroke:none;" d="M890 118L894 120L894 119L890 118z"/>
<path style="fill:#eff2c4; stroke:none;" d="M0 119L1 120L0 119z"/>
<path style="fill:#c6c7c7; stroke:none;" d="M7 119L8 120L7 119M12 119L13 120L12 119M22 119L23 120L22 119M41 119L42 120L41 119M47 119L48 120L47 119M61.3333 119.667L61.6667 120.333L61.3333 119.667M71 119L72 120L71 119M81.3333 119.667L81.6667 120.333L81.3333 119.667M97 119L98 120L97 119z"/>
<path style="fill:#eff2c4; stroke:none;" d="M104 119L105 120L104 119z"/>
<path style="fill:#c6c7c7; stroke:none;" d="M114 119L115 120L114 119z"/>
<path style="fill:#eff2c4; stroke:none;" d="M130 119L131 120L130 119z"/>
<path style="fill:#c6c7c7; stroke:none;" d="M690.667 119.333L691.333 119.667L690.667 119.333M699 119L701 121L701 119L699 119M714.333 119.667L714.667 120.333L714.333 119.667M723 119L724 120L723 119M726 119L727 120L726 119M737 119L738 120L737 119M740 119L741 120L740 119M792 119L793 120L792 119M795 119L796 120L795 119M806 119L807 120L806 119M816 119L817 120L816 119M819 119L820 120L819 119M821 119L822 120L821 119M824 119L825 120L824 119M827 119L828 120L827 119M839 119L840 120L839 119M856 119L857 120L856 119M859 119L860 120L859 119M866 119L867 120L866 119M874 119L876 121L874 119M877.333 119.667L877.667 120.333L877.333 119.667M887.333 119.667L887.667 120.333L887.333 119.667z"/>
<path style="fill:#eff2c4; stroke:none;" d="M1 120L2 121L1 120z"/>
<path style="fill:#c6c7c7; stroke:none;" d="M2 120L3 121L2 120M6 120L7 121L6 120M10 120L11 121L10 120M13.6667 120.333L14.3333 120.667L13.6667 120.333z"/>
<path style="fill:#eff2c4; stroke:none;" d="M21 120L22 121L21 120z"/>
<path style="fill:#c6c7c7; stroke:none;" d="M24 120L25 121L24 120M42 120L43 121L42 120M46 120L47 121L46 120M69 120L70 121L69 120M72.6667 120.333L73.3333 120.667L72.6667 120.333M78 120L79 121L78 120z"/>
<path style="fill:#eff2c4; stroke:none;" d="M98 120L99 121L98 120z"/>
<path style="fill:#c6c7c7; stroke:none;" d="M102 120L103 121L102 120z"/>
<path style="fill:#eff2c4; stroke:none;" d="M103 120L104 121L103 120z"/>
<path style="fill:#c6c7c7; stroke:none;" d="M107 120L108 121L107 120z"/>
<path style="fill:#eff2c4; stroke:none;" d="M111 120L112 121L111 120z"/>
<path style="fill:#c6c7c7; stroke:none;" d="M115 120L116 121L115 120M133 120L134 121L133 120M688 120L689 121L688 120M692 120L693 121L692 120M697 120L698 121L697 120z"/>
<path style="fill:#eff2c4; stroke:none;" d="M701 120L702 121L701 120z"/>
<path style="fill:#c6c7c7; stroke:none;" d="M711 120L712 121L711 120M721 120L722 121L721 120M725 120L726 121L725 120M738 120L739 121L738 120M742 120L743 121L742 120M762 120L763 121L762 120M766 120L767 121L766 120M793 120L794 121L793 120M797 120L798 121L797 120M802 120L803 121L802 120M805 120L806 121L805 120M814 120L815 121L814 120M818 120L819 121L818 120M822 120L823 121L822 120M826 120L827 121L826 120M840 120L841 121L840 120M843 120L844 121L843 120z"/>
<path style="fill:#eff2c4; stroke:none;" d="M844 120L845 121L844 120M856 120L857 121L856 120M859 120L860 121L859 120z"/>
<path style="fill:#c6c7c7; stroke:none;" d="M867 120L868 121L867 120M870 120L871 121L870 120z"/>
<path style="fill:#eff2c4; stroke:none;" d="M871 120L872 121L871 120M874 120L875 121L874 120M878 120L879 121L878 120z"/>
</svg>
